<?xml version="1.0" encoding="UTF-8" ?>
<!DOCTYPE svg PUBLIC "-//W3C//DTD SVG 1.1//EN" "http://www.w3.org/Graphics/SVG/1.1/DTD/svg11.dtd">
<svg width="1024pt" height="1024pt" viewBox="0 0 1024 1024" version="1.1" xmlns="http://www.w3.org/2000/svg">
<g id="#201f22ff">
<path fill="#201f22" opacity="1.00" d=" M 72.24 258.06 C 218.81 173.41 365.41 88.79 512.00 4.16 C 658.59 88.79 805.20 173.40 951.76 258.07 C 951.74 427.36 951.75 596.65 951.76 765.94 C 805.18 850.59 658.59 935.21 512.01 1019.84 C 365.41 935.22 218.82 850.59 72.24 765.94 C 72.25 596.65 72.26 427.36 72.24 258.06 M 581.95 99.50 C 578.27 112.95 573.58 126.11 569.85 139.53 C 570.45 139.99 571.65 140.92 572.25 141.38 C 575.57 131.73 578.39 121.92 581.47 112.19 C 583.76 117.67 584.55 123.62 586.65 129.17 C 588.25 133.46 590.77 137.87 595.13 139.83 C 609.43 145.58 622.32 154.28 634.34 163.84 C 642.15 169.83 652.42 166.43 661.40 167.64 C 668.56 168.13 674.73 172.04 681.13 174.90 C 701.56 184.78 720.79 197.19 738.07 211.91 C 746.02 218.94 754.14 225.86 760.95 234.05 C 767.81 240.84 772.81 249.38 775.52 258.64 C 784.89 263.95 794.20 269.38 803.52 274.78 C 795.95 261.37 788.24 248.03 780.12 234.95 C 770.30 219.24 759.19 204.04 744.91 192.07 C 737.90 186.18 729.99 181.52 722.22 176.74 C 699.15 162.65 674.32 150.61 647.56 145.66 C 636.97 143.44 626.17 141.32 616.39 136.51 C 610.91 133.65 605.34 130.31 601.92 125.00 C 595.47 116.36 590.37 106.46 581.95 99.50 M 160.34 309.43 C 160.11 392.63 160.55 475.83 160.47 559.03 C 160.44 610.83 160.37 662.63 160.45 714.43 C 273.53 779.72 386.70 844.85 499.68 910.33 C 503.98 912.91 508.61 915.13 512.00 918.96 C 516.40 914.10 522.53 911.50 528.02 908.14 C 639.84 843.52 751.62 778.84 863.56 714.42 C 863.50 652.27 863.57 590.12 863.51 527.97 C 863.39 485.79 863.74 443.60 863.33 401.43 C 861.63 404.31 861.95 408.38 859.23 410.54 C 858.54 407.41 858.42 404.19 858.60 401.00 C 855.46 402.83 852.21 404.44 848.93 405.99 C 851.09 408.78 854.06 411.37 854.38 415.13 C 856.52 427.34 857.51 439.72 858.12 452.08 C 859.06 458.36 857.73 464.65 857.97 470.94 C 857.83 475.62 858.26 480.28 858.52 484.95 C 858.82 489.62 857.35 494.22 857.83 498.90 C 858.16 503.29 857.01 507.64 857.38 512.04 C 856.16 529.62 855.74 547.19 854.68 564.77 C 853.40 585.54 850.17 606.56 841.59 625.68 C 836.30 636.77 830.34 647.58 823.70 657.92 C 823.71 644.05 823.64 630.18 823.72 616.31 C 815.65 635.28 805.16 653.23 792.57 669.55 C 785.56 679.05 770.68 678.00 764.76 688.65 C 759.28 702.92 752.08 716.60 742.71 728.73 C 739.81 732.18 739.21 736.78 739.57 741.14 C 745.55 737.79 751.65 734.58 757.27 730.64 C 756.16 734.72 754.47 738.67 754.04 742.92 C 752.74 752.96 753.29 763.22 750.70 773.09 C 747.18 773.52 744.29 771.42 742.20 768.82 C 736.53 762.45 730.74 756.19 725.14 749.77 C 691.53 769.34 657.78 788.67 624.13 808.16 C 620.33 801.28 616.22 794.57 611.87 788.03 C 602.11 776.04 595.09 762.19 586.67 749.29 C 583.97 745.06 580.70 741.24 577.92 737.07 C 568.31 721.98 562.89 704.02 563.59 686.09 C 564.71 678.41 563.38 670.71 563.47 663.03 C 564.07 654.37 563.90 645.62 565.75 637.10 C 567.09 631.20 568.33 624.96 572.10 620.07 C 577.91 612.18 584.12 604.48 588.41 595.62 C 634.02 646.90 679.41 698.37 725.05 749.62 C 726.12 748.95 727.22 748.30 728.32 747.65 C 682.67 696.98 637.73 645.66 592.28 594.82 C 585.61 583.91 585.77 570.47 580.40 559.01 C 610.35 558.25 640.39 551.79 667.06 537.88 C 659.50 531.94 651.16 527.06 642.66 522.61 C 662.27 513.65 684.28 517.58 704.88 519.86 C 714.96 521.48 725.47 520.08 734.77 515.83 C 750.36 508.87 762.49 496.11 772.47 482.57 C 779.92 471.85 788.39 461.67 798.85 453.76 C 802.21 450.93 806.32 449.14 809.56 446.16 C 799.38 446.16 789.18 445.62 779.03 446.43 C 772.97 445.78 766.87 446.18 760.81 445.72 C 773.36 440.59 784.47 432.07 797.81 428.84 C 806.35 426.72 815.12 425.90 823.78 424.44 C 823.75 415.64 823.79 406.83 823.76 398.03 C 819.64 401.92 814.69 404.69 809.53 406.95 C 813.52 411.49 818.42 415.13 822.41 419.70 C 807.57 425.46 791.31 426.31 776.63 432.53 C 770.03 435.16 764.86 440.20 758.63 443.47 C 752.29 446.88 745.79 449.99 739.50 453.48 C 732.39 457.40 726.45 463.02 719.91 467.76 C 709.33 475.76 697.08 481.69 684.00 484.16 C 673.78 485.93 663.22 485.21 653.15 487.96 C 646.27 489.74 640.35 493.78 633.94 496.69 C 611.02 508.75 589.48 523.38 565.81 534.03 C 563.99 528.91 562.66 523.59 562.21 518.16 C 561.33 509.76 562.56 501.35 562.61 492.94 C 563.46 487.50 562.27 482.06 562.42 476.60 C 576.68 473.21 590.43 468.01 604.74 464.82 C 614.03 462.78 623.54 462.06 632.99 461.15 C 640.07 460.17 647.45 459.36 653.79 455.78 C 666.34 448.76 675.69 437.14 688.71 430.86 C 696.97 427.09 706.13 426.31 714.90 424.38 C 719.70 423.33 724.28 421.53 728.96 420.05 C 750.74 413.06 773.36 408.87 794.84 400.91 C 799.24 399.11 804.03 397.84 807.80 394.81 C 813.42 389.73 814.75 381.94 816.85 375.03 C 818.31 370.47 819.61 365.34 823.75 362.42 C 823.73 352.37 823.71 342.31 823.72 332.25 C 818.07 327.34 811.11 324.36 804.79 320.45 C 810.81 334.72 814.33 349.87 818.25 364.80 C 769.57 379.75 720.42 393.13 671.72 408.04 C 670.88 404.33 669.87 400.55 667.54 397.47 C 662.75 390.64 655.21 386.69 648.74 381.71 C 668.43 375.73 689.35 376.97 709.51 379.43 C 701.52 369.07 690.42 361.39 678.38 356.46 C 659.00 348.54 637.19 347.70 616.88 352.19 C 595.50 356.24 575.73 365.74 555.02 372.05 C 550.58 373.53 545.80 374.84 541.14 373.57 C 527.94 370.42 518.28 359.90 505.74 355.19 C 524.01 296.62 542.16 238.00 560.70 179.52 C 559.95 179.10 558.46 178.25 557.72 177.83 C 551.55 196.76 545.75 215.82 539.76 234.81 C 527.49 274.35 515.04 313.85 503.16 353.51 C 495.13 350.57 486.51 349.36 477.99 349.59 C 463.34 349.16 448.78 352.64 435.30 358.19 C 426.53 362.80 417.98 367.95 410.25 374.19 C 400.77 381.42 393.27 392.00 391.66 404.01 C 389.66 412.46 388.18 421.20 389.42 429.89 C 391.04 445.98 398.04 461.09 407.74 473.88 C 395.79 478.47 384.23 484.15 371.89 487.70 C 341.60 496.01 309.77 495.23 279.15 501.80 C 274.37 502.81 269.53 503.85 265.10 506.02 C 254.43 511.06 246.10 519.62 237.25 527.20 C 232.15 531.63 228.13 537.19 225.07 543.18 C 242.95 558.88 266.96 564.76 289.97 567.98 C 315.49 571.23 341.18 575.45 366.98 573.52 C 370.82 573.72 375.16 574.14 378.10 576.89 C 389.44 589.83 403.78 600.63 411.45 616.41 C 420.54 636.92 426.27 658.68 434.14 679.65 C 438.79 692.07 444.75 704.24 446.44 717.54 C 447.31 724.00 445.10 730.36 442.47 736.18 C 437.20 748.96 432.09 761.83 426.12 774.31 C 419.53 786.84 411.45 798.49 404.04 810.54 C 337.53 772.18 271.08 733.70 204.63 695.24 C 203.05 694.24 201.65 693.01 200.25 691.80 C 200.18 571.98 200.16 452.15 200.36 332.33 C 208.59 325.49 218.70 321.42 227.59 315.53 C 320.41 261.66 413.43 208.12 506.33 154.38 C 509.69 152.31 514.33 152.31 517.71 154.37 C 531.01 162.09 544.34 169.75 557.66 177.43 C 561.63 164.90 565.49 152.32 569.50 139.80 C 550.24 128.92 531.19 117.68 512.00 106.67 C 394.81 174.31 277.67 242.04 160.34 309.43 M 572.48 141.71 C 568.41 154.11 564.79 166.66 560.74 179.07 C 574.33 187.30 588.26 194.96 601.96 203.02 C 669.55 241.93 736.99 281.11 804.61 319.95 C 800.81 311.67 796.61 303.47 790.86 296.34 C 786.21 298.38 781.65 300.66 776.92 302.53 C 779.37 288.84 779.89 274.56 776.11 261.05 C 775.80 259.52 774.81 258.28 773.42 257.62 C 706.40 219.06 639.52 180.24 572.48 141.71 M 804.28 275.52 C 819.02 301.31 833.97 327.43 842.14 356.19 C 849.30 354.50 856.36 352.38 863.55 350.78 C 863.53 337.07 863.51 323.36 863.56 309.64 C 843.79 298.28 824.09 286.79 804.28 275.52 M 878.54 335.44 C 879.03 339.59 879.68 343.72 880.31 347.85 C 874.72 348.49 869.19 349.53 863.70 350.71 C 863.71 351.58 863.73 353.34 863.75 354.21 C 868.95 352.99 874.15 350.92 879.57 351.27 C 882.57 351.48 885.48 354.45 888.40 352.54 C 904.55 344.19 922.40 340.08 939.09 333.05 C 942.60 331.41 946.42 330.20 949.42 327.64 C 925.34 325.80 902.67 339.12 878.54 335.44 M 858.33 355.38 C 860.05 356.78 861.78 358.17 863.52 359.57 C 863.54 357.81 863.56 356.06 863.59 354.31 C 861.83 354.67 860.07 355.03 858.33 355.38 M 823.90 363.09 C 823.95 374.55 823.87 386.02 823.94 397.48 C 830.50 390.42 833.50 380.88 834.61 371.48 C 840.30 371.52 845.98 371.47 851.67 371.54 C 854.07 369.27 856.40 366.92 858.63 364.46 C 853.44 362.71 848.31 360.78 843.14 358.98 C 836.70 360.27 830.14 360.97 823.90 363.09 M 863.72 359.65 C 863.71 361.45 863.71 363.26 863.74 365.07 C 865.36 366.13 867.31 366.94 868.35 368.69 C 869.63 370.53 868.79 372.87 868.87 374.95 C 867.17 375.53 865.41 376.01 863.62 375.61 C 863.65 376.50 863.72 378.27 863.75 379.16 C 864.28 379.12 865.34 379.06 865.88 379.03 C 862.97 384.67 863.75 391.13 863.73 397.25 C 864.29 397.09 865.41 396.77 865.97 396.61 C 868.20 387.53 871.10 378.47 876.51 370.70 C 872.54 366.69 868.23 363.04 863.72 359.65 M 863.47 375.37 C 863.58 372.01 863.58 368.65 863.36 365.30 C 859.01 367.37 860.94 372.63 863.47 375.37 M 846.34 386.88 C 850.63 388.51 855.51 388.10 859.60 390.32 C 855.07 392.24 850.31 393.49 845.74 395.30 C 850.40 396.48 854.99 397.96 859.72 398.89 C 859.23 396.27 858.84 393.64 858.59 390.99 C 859.16 391.21 860.32 391.65 860.90 391.87 C 862.66 388.00 864.01 383.89 863.62 379.57 C 857.88 382.07 852.06 384.35 846.34 386.88 M 823.91 424.67 C 823.93 447.23 823.88 469.80 823.94 492.37 C 828.30 492.90 832.64 493.65 837.01 494.17 C 841.46 470.38 835.21 446.51 832.91 422.85 C 829.90 423.40 826.90 424.01 823.91 424.67 M 747.87 437.57 C 731.42 443.95 717.04 454.41 701.28 462.18 C 688.68 468.33 674.37 472.63 660.28 470.00 C 661.25 473.25 662.57 476.38 664.01 479.45 C 675.50 480.00 687.23 478.62 697.82 473.88 C 715.31 467.34 727.29 451.76 744.28 444.32 C 750.30 441.06 756.83 438.46 762.05 433.93 C 757.13 434.25 752.45 435.87 747.87 437.57 M 617.67 489.66 C 606.80 493.95 595.82 498.64 584.02 499.51 C 579.65 499.85 575.35 498.79 571.02 498.35 C 570.98 506.35 571.08 514.34 571.03 522.34 C 581.24 517.39 590.86 511.33 600.70 505.71 C 608.24 501.15 616.16 497.26 623.71 492.70 C 626.71 490.91 629.23 488.39 631.03 485.40 C 626.32 485.92 622.04 488.01 617.67 489.66 M 823.98 495.03 C 823.86 535.16 823.84 575.29 823.92 615.41 C 830.17 601.78 834.65 587.41 838.88 573.04 C 840.90 565.22 841.88 557.08 841.44 549.01 C 840.20 529.94 833.81 511.35 823.98 495.03 M 728.90 747.57 C 733.01 753.98 738.91 759.05 743.77 764.90 C 742.57 757.14 739.88 749.66 739.36 741.80 C 735.80 743.59 732.39 745.65 728.90 747.57 Z" />
<path fill="#201f22" opacity="1.00" d=" M 681.23 409.45 C 724.56 394.69 769.03 383.65 812.73 370.09 C 810.22 376.07 809.04 382.51 806.42 388.44 C 804.63 392.31 801.83 396.18 797.53 397.40 C 772.80 404.14 748.08 410.96 723.23 417.26 C 719.72 418.06 716.08 419.68 712.47 418.46 C 702.05 415.48 691.54 412.79 681.23 409.45 Z" />
<path fill="#201f22" opacity="1.00" d=" M 489.76 411.95 C 496.29 404.69 501.54 395.52 510.97 391.63 C 513.44 394.09 516.38 396.47 517.21 400.04 C 519.54 406.94 518.00 414.28 516.50 421.18 C 520.98 425.74 525.49 430.27 530.07 434.72 C 524.38 436.97 518.85 439.61 513.44 442.46 C 505.27 446.61 495.67 442.71 487.32 446.14 C 484.66 447.14 482.46 449.00 480.25 450.72 C 478.04 446.61 475.98 442.41 473.25 438.62 C 472.25 442.85 471.58 447.14 470.93 451.44 C 466.31 454.21 461.40 456.43 456.78 459.19 C 459.41 460.60 462.35 459.36 465.07 458.94 C 471.49 457.43 478.03 456.11 484.67 456.47 C 480.04 463.18 471.60 465.20 465.49 470.17 C 471.59 470.87 478.03 470.24 483.52 467.29 C 486.12 465.69 490.86 466.78 491.44 462.92 C 491.04 458.16 487.57 453.58 489.84 448.77 C 492.86 448.25 495.86 446.98 498.96 447.27 C 502.37 448.72 505.10 451.76 505.94 455.41 C 504.26 456.34 502.68 457.46 501.43 458.94 C 508.57 459.19 515.50 457.11 522.30 455.20 C 532.65 452.29 542.70 448.25 553.30 446.29 C 545.61 455.84 535.69 464.97 523.03 466.62 C 515.31 467.65 513.33 476.41 510.27 482.25 C 502.32 478.55 494.86 473.40 486.28 471.32 C 487.50 476.15 490.11 480.63 490.81 485.57 C 484.34 491.07 477.49 496.17 471.76 502.50 C 460.77 503.62 449.72 504.82 438.67 504.44 C 437.61 508.11 436.78 511.84 435.99 515.59 C 423.43 513.37 409.75 512.71 398.02 518.54 C 413.37 532.15 430.60 543.97 443.28 560.32 C 420.63 550.25 400.59 535.46 379.06 523.36 C 390.55 520.44 401.62 516.12 412.59 511.66 C 418.54 509.35 424.11 506.08 430.32 504.47 C 446.11 500.00 463.83 503.28 478.53 494.91 C 474.59 494.15 470.61 493.58 466.79 492.35 C 474.95 491.74 482.94 489.18 490.00 485.05 C 483.97 481.10 477.88 477.23 471.35 474.16 C 469.88 477.16 469.41 480.49 468.68 483.72 C 468.19 480.47 467.93 477.19 467.88 473.90 C 450.21 475.92 434.61 485.81 417.11 488.62 C 396.58 491.60 376.47 496.84 356.23 501.26 C 332.86 505.79 308.64 506.25 285.98 514.06 C 273.51 517.77 261.61 523.25 248.91 526.16 C 248.29 524.71 247.67 523.25 247.06 521.81 C 260.77 511.48 277.23 505.32 294.00 502.10 C 316.44 497.51 339.45 496.93 362.01 493.11 C 381.90 489.38 400.21 480.44 418.81 472.83 C 424.29 470.47 430.51 469.26 434.90 464.92 C 441.21 459.20 446.42 450.94 455.52 449.57 C 459.59 449.90 463.38 451.87 467.51 452.07 C 465.17 449.05 461.10 448.52 457.87 446.87 C 466.53 441.19 475.29 434.63 479.84 425.02 C 479.23 430.66 478.84 436.33 478.58 442.00 C 479.49 440.75 480.29 439.41 480.66 437.89 C 482.37 431.60 483.91 425.26 485.41 418.92 C 488.75 421.34 491.66 424.36 495.24 426.46 C 495.56 423.63 495.89 420.80 496.27 417.98 C 500.34 420.48 503.62 424.07 507.83 426.37 C 509.71 421.55 511.42 416.66 512.73 411.65 C 505.05 410.98 497.43 412.72 489.76 411.95 Z" />
<path fill="#201f22" opacity="1.00" d=" M 507.65 447.66 C 514.60 444.76 521.16 440.03 528.98 440.09 C 536.10 440.22 543.26 441.31 550.01 443.62 C 538.48 446.56 527.04 449.88 515.80 453.79 C 513.08 451.75 510.35 449.71 507.65 447.66 Z" />
<path fill="#201f22" opacity="1.00" d=" M 512.15 505.40 C 519.49 501.46 526.59 497.06 534.23 493.69 C 530.72 501.82 527.34 510.00 523.40 517.94 C 519.87 513.56 515.71 509.75 512.15 505.40 Z" />
<path fill="#201f22" opacity="1.00" d=" M 465.69 541.28 C 476.21 527.07 485.19 511.50 498.12 499.23 C 499.16 508.97 499.42 518.81 501.18 528.47 C 504.86 522.27 507.91 515.71 510.85 509.13 C 514.71 513.31 518.43 517.63 522.34 521.78 C 515.28 526.80 510.36 534.05 504.04 539.87 C 497.32 546.65 490.00 552.92 481.63 557.59 C 466.05 552.81 451.98 544.46 437.66 536.90 C 452.83 541.93 467.32 549.86 483.41 551.55 C 477.86 547.53 471.42 545.02 465.69 541.28 Z" />
<path fill="#201f22" opacity="1.00" d=" M 529.38 530.42 C 531.68 522.18 536.88 515.23 542.50 508.95 C 542.56 515.00 542.72 521.06 542.62 527.11 C 545.93 523.84 549.14 520.48 552.47 517.23 C 550.43 526.96 543.73 535.50 544.47 545.83 C 561.19 545.66 573.67 564.91 568.29 580.30 C 562.06 582.35 555.52 583.85 548.93 583.66 C 541.75 582.98 534.60 581.57 527.85 579.00 C 534.22 570.81 540.56 562.59 546.90 554.37 C 542.30 553.87 537.86 555.50 533.36 556.15 C 533.55 554.25 533.77 552.37 533.93 550.49 C 530.34 553.37 527.88 557.36 524.40 560.37 C 507.60 578.04 486.35 590.39 466.86 604.74 C 479.02 590.64 493.16 578.33 504.60 563.59 C 505.54 562.40 506.07 560.96 506.65 559.59 C 495.77 566.12 486.32 574.74 475.89 581.93 C 463.81 590.82 450.01 597.93 434.92 599.66 C 438.34 595.82 441.76 591.86 446.17 589.13 C 456.47 582.54 468.50 578.87 478.04 571.06 C 483.11 566.44 488.63 562.33 493.38 557.36 C 504.10 546.97 513.52 535.35 524.12 524.82 C 525.76 526.79 527.50 528.67 529.38 530.42 Z" />
<path fill="#201f22" opacity="1.00" d=" M 335.26 546.64 C 347.30 538.27 360.62 532.00 373.86 525.81 C 384.95 541.61 399.67 554.32 414.39 566.60 C 421.46 572.77 428.96 578.49 435.43 585.29 C 416.44 578.29 398.51 568.14 383.56 554.42 C 380.64 552.05 378.10 549.23 375.08 547.00 C 370.07 544.52 364.83 542.52 359.83 540.03 C 358.19 538.89 356.65 540.56 355.25 541.24 C 349.34 545.15 342.05 545.55 335.26 546.64 Z" />
<path fill="#201f22" opacity="1.00" d=" M 528.58 596.41 C 543.47 595.20 559.13 595.34 572.72 588.20 C 569.37 601.08 558.66 611.20 546.07 615.00 C 532.80 619.45 517.18 616.82 506.68 607.39 C 520.63 607.35 534.81 608.50 548.55 605.39 C 552.73 604.21 557.24 603.30 560.60 600.35 C 549.98 598.61 539.12 598.72 528.58 596.41 Z" />
<path fill="#201f22" opacity="1.00" d=" M 475.58 646.51 C 486.52 636.45 496.85 625.53 505.02 613.06 C 512.67 622.86 524.86 627.96 537.02 629.03 C 543.63 629.83 550.27 629.18 556.86 628.61 C 559.08 640.29 560.59 652.12 561.07 664.01 C 560.98 672.01 560.94 680.01 561.09 688.02 C 560.48 701.31 559.13 714.56 557.52 727.78 C 547.58 739.61 539.09 753.16 525.99 761.87 C 523.45 763.30 520.95 765.29 517.96 765.49 C 493.82 762.09 473.35 747.87 450.88 739.55 C 452.29 731.70 455.26 723.72 453.46 715.67 C 449.79 704.78 443.44 695.04 439.59 684.21 C 436.77 677.39 436.31 669.95 434.46 662.87 C 432.60 655.28 429.88 647.93 427.55 640.48 C 435.91 645.57 444.97 650.38 454.97 650.82 C 458.59 651.00 462.20 650.40 465.83 650.49 C 469.28 646.87 473.01 643.49 475.89 639.38 C 465.85 640.81 455.26 642.56 445.38 639.42 C 460.42 636.50 475.04 631.30 488.24 623.47 C 485.27 627.00 482.12 630.41 479.55 634.26 C 478.77 633.38 478.00 632.49 477.23 631.63 C 476.46 636.56 475.46 641.49 475.58 646.51 M 456.59 661.73 C 461.83 672.20 474.53 678.14 476.27 690.53 C 476.48 700.24 481.16 708.95 485.48 717.38 C 486.72 720.14 488.72 722.83 488.56 725.99 C 487.95 732.15 485.18 737.79 483.74 743.76 C 485.00 743.07 486.27 742.38 487.53 741.69 C 489.30 733.42 492.07 725.37 493.47 717.03 C 492.35 714.16 490.43 711.68 489.20 708.87 C 485.80 701.31 484.04 693.15 482.36 685.08 C 481.71 682.30 481.54 679.33 480.26 676.75 C 476.82 672.44 472.23 669.19 467.40 666.61 C 463.91 664.74 460.50 662.57 456.59 661.73 Z" />
<path fill="#201f22" opacity="1.00" d=" M 793.52 695.45 C 805.44 684.53 815.15 671.43 823.79 657.83 C 823.83 669.17 823.74 680.52 823.84 691.87 C 820.48 695.03 816.33 697.10 812.41 699.43 C 796.55 708.53 780.78 717.77 764.92 726.86 C 762.75 728.06 760.46 729.20 758.88 731.19 C 758.44 730.75 758.03 730.32 757.63 729.90 C 760.95 725.48 763.79 720.65 767.86 716.84 C 775.88 709.08 785.40 703.10 793.52 695.45 Z" />
<path fill="#201f22" opacity="1.00" d=" M 434.71 777.78 C 440.20 775.39 446.18 774.54 452.05 773.67 C 473.20 774.22 492.67 784.60 508.87 797.58 C 482.96 797.13 458.30 787.70 434.71 777.78 Z" />
<path fill="#201f22" opacity="1.00" d=" M 431.67 783.68 C 433.78 782.97 435.97 783.68 438.04 784.17 C 445.32 785.98 452.03 789.41 458.98 792.15 C 475.08 799.11 491.64 805.63 505.80 816.19 C 507.17 817.21 508.31 818.49 509.44 819.78 C 491.71 817.59 474.60 812.00 458.33 804.77 C 449.21 800.99 440.37 796.56 431.22 792.89 C 431.44 789.81 431.28 786.72 431.67 783.68 Z" />
</g>
<g id="#5ec44dff">
<path fill="#5ec44d" opacity="1.00" d=" M 581.95 99.50 C 590.37 106.46 595.47 116.36 601.92 125.00 C 605.34 130.31 610.91 133.65 616.39 136.51 C 626.17 141.32 636.97 143.44 647.56 145.66 C 674.32 150.61 699.15 162.65 722.22 176.74 C 729.99 181.52 737.90 186.18 744.91 192.07 C 759.19 204.04 770.30 219.24 780.12 234.95 C 788.24 248.03 795.95 261.37 803.52 274.78 C 794.20 269.38 784.89 263.95 775.52 258.64 C 772.81 249.38 767.81 240.84 760.95 234.05 C 754.14 225.86 746.02 218.94 738.07 211.91 C 720.79 197.19 701.56 184.78 681.13 174.90 C 674.73 172.04 668.56 168.13 661.40 167.64 C 652.42 166.43 642.15 169.83 634.34 163.84 C 622.32 154.28 609.43 145.58 595.13 139.83 C 590.77 137.87 588.25 133.46 586.65 129.17 C 584.55 123.62 583.76 117.67 581.47 112.19 C 578.39 121.92 575.57 131.73 572.25 141.38 C 571.65 140.92 570.45 139.99 569.85 139.53 C 573.58 126.11 578.27 112.95 581.95 99.50 Z" />
<path fill="#5ec44d" opacity="1.00" d=" M 160.34 309.43 C 277.67 242.04 394.81 174.31 512.00 106.67 C 531.19 117.68 550.24 128.92 569.50 139.80 C 565.49 152.32 561.63 164.90 557.66 177.43 C 544.34 169.75 531.01 162.09 517.71 154.37 C 514.33 152.31 509.69 152.31 506.33 154.38 C 413.43 208.12 320.41 261.66 227.59 315.53 C 218.70 321.42 208.59 325.49 200.36 332.33 C 200.16 452.15 200.18 571.98 200.25 691.80 C 201.65 693.01 203.05 694.24 204.63 695.24 C 271.08 733.70 337.53 772.18 404.04 810.54 C 411.45 798.49 419.53 786.84 426.12 774.31 C 432.09 761.83 437.20 748.96 442.47 736.18 C 445.10 730.36 447.31 724.00 446.44 717.54 C 444.75 704.24 438.79 692.07 434.14 679.65 C 426.27 658.68 420.54 636.92 411.45 616.41 C 403.78 600.63 389.44 589.83 378.10 576.89 C 375.16 574.14 370.82 573.72 366.98 573.52 C 341.18 575.45 315.49 571.23 289.97 567.98 C 266.96 564.76 242.95 558.88 225.07 543.18 C 228.13 537.19 232.15 531.63 237.25 527.20 C 246.10 519.62 254.43 511.06 265.10 506.02 C 269.53 503.85 274.37 502.81 279.15 501.80 C 309.77 495.23 341.60 496.01 371.89 487.70 C 384.23 484.15 395.79 478.47 407.74 473.88 C 398.04 461.09 391.04 445.98 389.42 429.89 C 388.18 421.20 389.66 412.46 391.66 404.01 C 393.27 392.00 400.77 381.42 410.25 374.19 C 417.98 367.95 426.53 362.80 435.30 358.19 C 448.78 352.64 463.34 349.16 477.99 349.59 C 486.51 349.36 495.13 350.57 503.16 353.51 C 515.04 313.85 527.49 274.35 539.76 234.81 C 545.75 215.82 551.55 196.76 557.72 177.83 C 558.46 178.25 559.95 179.10 560.70 179.52 C 542.16 238.00 524.01 296.62 505.74 355.19 C 518.28 359.90 527.94 370.42 541.14 373.57 C 545.80 374.84 550.58 373.53 555.02 372.05 C 575.73 365.74 595.50 356.24 616.88 352.19 C 637.19 347.70 659.00 348.54 678.38 356.46 C 690.42 361.39 701.52 369.07 709.51 379.43 C 689.35 376.97 668.43 375.73 648.74 381.71 C 655.21 386.69 662.75 390.64 667.54 397.47 C 669.87 400.55 670.88 404.33 671.72 408.04 C 720.42 393.13 769.57 379.75 818.25 364.80 C 814.33 349.87 810.81 334.72 804.79 320.45 C 811.11 324.36 818.07 327.34 823.72 332.25 C 823.71 342.31 823.73 352.37 823.75 362.42 C 819.61 365.34 818.31 370.47 816.85 375.03 C 814.75 381.94 813.42 389.73 807.80 394.81 C 804.03 397.84 799.24 399.11 794.84 400.91 C 773.36 408.87 750.74 413.06 728.96 420.05 C 724.28 421.53 719.70 423.33 714.90 424.38 C 706.13 426.31 696.97 427.09 688.71 430.86 C 675.69 437.14 666.34 448.76 653.79 455.78 C 647.45 459.36 640.07 460.17 632.99 461.15 C 623.54 462.06 614.03 462.78 604.74 464.82 C 590.43 468.01 576.68 473.21 562.42 476.60 C 562.27 482.06 563.46 487.50 562.61 492.94 C 562.56 501.35 561.33 509.76 562.21 518.16 C 562.66 523.59 563.99 528.91 565.81 534.03 C 589.48 523.38 611.02 508.75 633.94 496.69 C 640.35 493.78 646.27 489.74 653.15 487.96 C 663.22 485.21 673.78 485.93 684.00 484.16 C 697.08 481.69 709.33 475.76 719.91 467.76 C 726.45 463.02 732.39 457.40 739.50 453.48 C 745.79 449.99 752.29 446.88 758.63 443.47 C 764.86 440.20 770.03 435.16 776.63 432.53 C 791.31 426.31 807.57 425.46 822.41 419.70 C 818.42 415.13 813.52 411.49 809.53 406.95 C 814.69 404.69 819.64 401.92 823.76 398.03 C 823.79 406.83 823.75 415.64 823.78 424.44 C 815.12 425.90 806.35 426.72 797.81 428.84 C 784.47 432.07 773.36 440.59 760.81 445.72 C 766.87 446.18 772.97 445.78 779.03 446.43 C 789.18 445.62 799.38 446.16 809.56 446.16 C 806.32 449.14 802.21 450.93 798.85 453.76 C 788.39 461.67 779.92 471.85 772.47 482.57 C 762.49 496.11 750.36 508.87 734.77 515.83 C 725.47 520.08 714.96 521.48 704.88 519.86 C 684.28 517.58 662.27 513.65 642.66 522.61 C 651.16 527.06 659.50 531.94 667.06 537.88 C 640.39 551.79 610.35 558.25 580.40 559.01 C 585.77 570.47 585.61 583.91 592.28 594.82 C 637.73 645.66 682.67 696.98 728.32 747.65 C 727.22 748.30 726.12 748.95 725.05 749.62 C 679.41 698.37 634.02 646.90 588.41 595.62 C 584.12 604.48 577.91 612.18 572.10 620.07 C 568.33 624.96 567.09 631.20 565.75 637.10 C 563.90 645.62 564.07 654.37 563.47 663.03 C 563.38 670.71 564.71 678.41 563.59 686.09 C 562.89 704.02 568.31 721.98 577.92 737.07 C 580.70 741.24 583.97 745.06 586.67 749.29 C 595.09 762.19 602.11 776.04 611.87 788.03 C 616.22 794.57 620.33 801.28 624.13 808.16 C 657.78 788.67 691.53 769.34 725.14 749.77 C 730.74 756.19 736.53 762.45 742.20 768.82 C 744.29 771.42 747.18 773.52 750.70 773.09 C 753.29 763.22 752.74 752.96 754.04 742.92 C 754.47 738.67 756.16 734.72 757.27 730.64 C 751.65 734.58 745.55 737.79 739.57 741.14 C 739.21 736.78 739.81 732.18 742.71 728.73 C 752.08 716.60 759.28 702.92 764.76 688.65 C 770.68 678.00 785.56 679.05 792.57 669.55 C 805.16 653.23 815.65 635.28 823.72 616.31 C 823.64 630.18 823.71 644.05 823.70 657.92 C 830.34 647.58 836.30 636.77 841.59 625.68 C 850.17 606.56 853.40 585.54 854.68 564.77 C 855.74 547.19 856.16 529.62 857.38 512.04 C 857.01 507.64 858.16 503.29 857.83 498.90 C 857.35 494.22 858.82 489.62 858.52 484.95 C 858.26 480.28 857.83 475.62 857.97 470.94 C 857.73 464.65 859.06 458.36 858.12 452.08 C 857.51 439.72 856.52 427.34 854.38 415.13 C 854.06 411.37 851.09 408.78 848.93 405.99 C 852.21 404.44 855.46 402.83 858.60 401.00 C 858.42 404.19 858.54 407.41 859.23 410.54 C 861.95 408.38 861.63 404.31 863.33 401.43 C 863.74 443.60 863.39 485.79 863.51 527.97 C 863.57 590.12 863.50 652.27 863.56 714.42 C 751.62 778.84 639.84 843.52 528.02 908.14 C 522.53 911.50 516.40 914.10 512.00 918.96 C 508.61 915.13 503.98 912.91 499.68 910.33 C 386.70 844.85 273.53 779.72 160.45 714.43 C 160.37 662.63 160.44 610.83 160.47 559.03 C 160.55 475.83 160.11 392.63 160.34 309.43 M 681.23 409.45 C 691.54 412.79 702.05 415.48 712.47 418.46 C 716.08 419.68 719.72 418.06 723.23 417.26 C 748.08 410.96 772.80 404.14 797.53 397.40 C 801.83 396.18 804.63 392.31 806.42 388.44 C 809.04 382.51 810.22 376.07 812.73 370.09 C 769.03 383.65 724.56 394.69 681.23 409.45 M 489.76 411.95 C 497.43 412.72 505.05 410.98 512.73 411.65 C 511.42 416.66 509.71 421.55 507.83 426.37 C 503.62 424.07 500.34 420.48 496.27 417.98 C 495.89 420.80 495.56 423.63 495.24 426.46 C 491.66 424.36 488.75 421.34 485.41 418.92 C 483.91 425.26 482.37 431.60 480.66 437.89 C 480.29 439.41 479.49 440.75 478.58 442.00 C 478.84 436.33 479.23 430.66 479.84 425.02 C 475.29 434.63 466.53 441.19 457.87 446.87 C 461.10 448.52 465.17 449.05 467.51 452.07 C 463.38 451.87 459.59 449.90 455.52 449.57 C 446.42 450.94 441.21 459.20 434.90 464.92 C 430.51 469.26 424.29 470.47 418.81 472.83 C 400.21 480.44 381.90 489.38 362.01 493.11 C 339.45 496.93 316.44 497.51 294.00 502.10 C 277.23 505.32 260.77 511.48 247.06 521.81 C 247.67 523.25 248.29 524.71 248.91 526.16 C 261.61 523.25 273.51 517.77 285.98 514.06 C 308.64 506.25 332.86 505.79 356.23 501.26 C 376.47 496.84 396.58 491.60 417.11 488.62 C 434.61 485.81 450.21 475.92 467.88 473.90 C 467.93 477.19 468.19 480.47 468.68 483.72 C 469.41 480.49 469.88 477.16 471.35 474.16 C 477.88 477.23 483.97 481.10 490.00 485.05 C 482.94 489.18 474.95 491.74 466.79 492.35 C 470.61 493.58 474.59 494.15 478.53 494.91 C 463.83 503.28 446.11 500.00 430.32 504.47 C 424.11 506.08 418.54 509.35 412.59 511.66 C 401.62 516.12 390.55 520.44 379.06 523.36 C 400.59 535.46 420.63 550.25 443.28 560.32 C 430.60 543.97 413.37 532.15 398.02 518.54 C 409.75 512.71 423.43 513.37 435.99 515.59 C 436.78 511.84 437.61 508.11 438.67 504.44 C 449.72 504.82 460.77 503.62 471.76 502.50 C 477.49 496.17 484.34 491.07 490.81 485.57 C 490.11 480.63 487.50 476.15 486.28 471.32 C 494.86 473.40 502.32 478.55 510.27 482.25 C 513.33 476.41 515.31 467.65 523.03 466.62 C 535.69 464.97 545.61 455.84 553.30 446.29 C 542.70 448.25 532.65 452.29 522.30 455.20 C 515.50 457.11 508.57 459.19 501.43 458.94 C 502.68 457.46 504.26 456.34 505.94 455.41 C 505.10 451.76 502.37 448.72 498.96 447.27 C 495.86 446.98 492.86 448.25 489.84 448.77 C 487.57 453.58 491.04 458.16 491.44 462.92 C 490.86 466.78 486.12 465.69 483.52 467.29 C 478.03 470.24 471.59 470.87 465.49 470.17 C 471.60 465.20 480.04 463.18 484.67 456.47 C 478.03 456.11 471.49 457.43 465.07 458.94 C 462.35 459.36 459.41 460.60 456.78 459.19 C 461.40 456.43 466.31 454.21 470.93 451.44 C 471.58 447.14 472.25 442.85 473.25 438.62 C 475.98 442.41 478.04 446.61 480.25 450.72 C 482.46 449.00 484.66 447.14 487.32 446.14 C 495.67 442.71 505.27 446.61 513.44 442.46 C 518.85 439.61 524.38 436.97 530.07 434.72 C 525.49 430.27 520.98 425.74 516.50 421.18 C 518.00 414.28 519.54 406.94 517.21 400.04 C 516.38 396.47 513.44 394.09 510.97 391.63 C 501.54 395.52 496.29 404.69 489.76 411.95 M 507.65 447.66 C 510.35 449.71 513.08 451.75 515.80 453.79 C 527.04 449.88 538.48 446.56 550.01 443.62 C 543.26 441.31 536.10 440.22 528.98 440.09 C 521.16 440.03 514.60 444.76 507.65 447.66 M 512.15 505.40 C 515.71 509.75 519.87 513.56 523.40 517.94 C 527.34 510.00 530.72 501.82 534.23 493.69 C 526.59 497.06 519.49 501.46 512.15 505.40 M 465.69 541.28 C 471.42 545.02 477.86 547.53 483.41 551.55 C 467.32 549.86 452.83 541.93 437.66 536.90 C 451.98 544.46 466.05 552.81 481.63 557.59 C 490.00 552.92 497.32 546.65 504.04 539.87 C 510.36 534.05 515.28 526.80 522.34 521.78 C 518.43 517.63 514.71 513.31 510.85 509.13 C 507.91 515.71 504.86 522.27 501.18 528.47 C 499.42 518.81 499.16 508.97 498.12 499.23 C 485.19 511.50 476.21 527.07 465.69 541.28 M 529.38 530.42 C 527.50 528.67 525.76 526.79 524.12 524.82 C 513.52 535.35 504.10 546.97 493.38 557.36 C 488.63 562.33 483.11 566.44 478.04 571.06 C 468.50 578.87 456.47 582.54 446.17 589.13 C 441.76 591.86 438.34 595.82 434.92 599.66 C 450.01 597.93 463.81 590.82 475.89 581.93 C 486.32 574.74 495.77 566.12 506.65 559.59 C 506.07 560.96 505.54 562.40 504.60 563.59 C 493.16 578.33 479.02 590.64 466.86 604.74 C 486.35 590.39 507.60 578.04 524.40 560.37 C 527.88 557.36 530.34 553.37 533.93 550.49 C 533.77 552.37 533.55 554.25 533.36 556.15 C 537.86 555.50 542.30 553.87 546.90 554.37 C 540.56 562.59 534.22 570.81 527.85 579.00 C 534.60 581.57 541.75 582.98 548.93 583.66 C 555.52 583.85 562.06 582.35 568.29 580.30 C 573.67 564.91 561.19 545.66 544.47 545.83 C 543.73 535.50 550.43 526.96 552.47 517.23 C 549.14 520.48 545.93 523.84 542.62 527.11 C 542.72 521.06 542.56 515.00 542.50 508.95 C 536.88 515.23 531.68 522.18 529.38 530.42 M 335.26 546.64 C 342.05 545.55 349.34 545.15 355.25 541.24 C 356.65 540.56 358.19 538.89 359.83 540.03 C 364.83 542.52 370.07 544.52 375.08 547.00 C 378.10 549.23 380.64 552.05 383.56 554.42 C 398.51 568.14 416.44 578.29 435.43 585.29 C 428.96 578.49 421.46 572.77 414.39 566.60 C 399.67 554.32 384.95 541.61 373.86 525.81 C 360.62 532.00 347.30 538.27 335.26 546.64 M 528.58 596.41 C 539.12 598.72 549.98 598.61 560.60 600.35 C 557.24 603.30 552.73 604.21 548.55 605.39 C 534.81 608.50 520.63 607.35 506.68 607.39 C 517.18 616.82 532.80 619.45 546.07 615.00 C 558.66 611.20 569.37 601.08 572.72 588.20 C 559.13 595.34 543.47 595.20 528.58 596.41 M 475.58 646.51 C 475.46 641.49 476.46 636.56 477.23 631.63 C 478.00 632.49 478.77 633.38 479.55 634.26 C 482.12 630.41 485.27 627.00 488.24 623.47 C 475.04 631.30 460.42 636.50 445.38 639.42 C 455.26 642.56 465.85 640.81 475.89 639.38 C 473.01 643.49 469.28 646.87 465.83 650.49 C 462.20 650.40 458.59 651.00 454.97 650.82 C 444.97 650.38 435.91 645.57 427.55 640.48 C 429.88 647.93 432.60 655.28 434.46 662.87 C 436.31 669.95 436.77 677.39 439.59 684.21 C 443.44 695.04 449.79 704.78 453.46 715.67 C 455.26 723.72 452.29 731.70 450.88 739.55 C 473.35 747.87 493.82 762.09 517.96 765.49 C 520.95 765.29 523.45 763.30 525.99 761.87 C 539.09 753.16 547.58 739.61 557.52 727.78 C 559.13 714.56 560.48 701.31 561.09 688.02 C 560.94 680.01 560.98 672.01 561.07 664.01 C 560.59 652.12 559.08 640.29 556.86 628.61 C 550.27 629.18 543.63 629.83 537.02 629.03 C 524.86 627.96 512.67 622.86 505.02 613.06 C 496.85 625.53 486.52 636.45 475.58 646.51 M 793.52 695.45 C 785.40 703.10 775.88 709.08 767.86 716.84 C 763.79 720.65 760.95 725.48 757.63 729.90 C 758.03 730.32 758.44 730.75 758.88 731.19 C 760.46 729.20 762.75 728.06 764.92 726.86 C 780.78 717.77 796.55 708.53 812.41 699.43 C 816.33 697.10 820.48 695.03 823.84 691.87 C 823.74 680.52 823.83 669.17 823.79 657.83 C 815.15 671.43 805.44 684.53 793.52 695.45 M 434.71 777.78 C 458.30 787.70 482.96 797.13 508.87 797.58 C 492.67 784.60 473.20 774.22 452.05 773.67 C 446.18 774.54 440.20 775.39 434.71 777.78 M 431.67 783.68 C 431.28 786.72 431.44 789.81 431.22 792.89 C 440.37 796.56 449.21 800.99 458.33 804.77 C 474.60 812.00 491.71 817.59 509.44 819.78 C 508.31 818.49 507.17 817.21 505.80 816.19 C 491.64 805.63 475.08 799.11 458.98 792.15 C 452.03 789.41 445.32 785.98 438.04 784.17 C 435.97 783.68 433.78 782.97 431.67 783.68 Z" />
<path fill="#5ec44d" opacity="1.00" d=" M 572.48 141.71 C 639.52 180.24 706.40 219.06 773.42 257.62 C 774.81 258.28 775.80 259.52 776.11 261.05 C 779.89 274.56 779.37 288.84 776.92 302.53 C 781.65 300.66 786.21 298.38 790.86 296.34 C 796.61 303.47 800.81 311.67 804.61 319.95 C 736.99 281.11 669.55 241.93 601.96 203.02 C 588.26 194.96 574.33 187.30 560.74 179.07 C 564.79 166.66 568.41 154.11 572.48 141.71 Z" />
<path fill="#5ec44d" opacity="1.00" d=" M 804.28 275.52 C 824.09 286.79 843.79 298.28 863.56 309.64 C 863.51 323.36 863.53 337.07 863.55 350.78 C 856.36 352.38 849.30 354.50 842.14 356.19 C 833.97 327.43 819.02 301.31 804.28 275.52 Z" />
<path fill="#5ec44d" opacity="1.00" d=" M 878.54 335.44 C 902.67 339.12 925.34 325.80 949.42 327.64 C 946.42 330.20 942.60 331.41 939.09 333.05 C 922.40 340.08 904.55 344.19 888.40 352.54 C 885.48 354.45 882.57 351.48 879.57 351.27 C 874.15 350.92 868.95 352.99 863.75 354.21 C 863.73 353.34 863.71 351.58 863.70 350.71 C 869.19 349.53 874.72 348.49 880.31 347.85 C 879.68 343.72 879.03 339.59 878.54 335.44 Z" />
<path fill="#5ec44d" opacity="1.00" d=" M 823.90 363.09 C 830.14 360.97 836.70 360.27 843.14 358.98 C 848.31 360.78 853.44 362.71 858.63 364.46 C 856.40 366.92 854.07 369.27 851.67 371.54 C 845.98 371.47 840.30 371.52 834.61 371.48 C 833.50 380.88 830.50 390.42 823.94 397.48 C 823.87 386.02 823.95 374.55 823.90 363.09 Z" />
<path fill="#5ec44d" opacity="1.00" d=" M 863.72 359.65 C 868.23 363.04 872.54 366.69 876.51 370.70 C 871.10 378.47 868.20 387.53 865.97 396.61 C 865.41 396.77 864.29 397.09 863.73 397.25 C 863.75 391.13 862.97 384.67 865.88 379.03 C 865.34 379.06 864.28 379.12 863.75 379.16 C 863.72 378.27 863.65 376.50 863.62 375.61 C 865.41 376.01 867.17 375.53 868.87 374.95 C 868.79 372.87 869.63 370.53 868.35 368.69 C 867.31 366.94 865.36 366.13 863.74 365.07 C 863.71 363.26 863.71 361.45 863.72 359.65 Z" />
<path fill="#5ec44d" opacity="1.00" d=" M 863.47 375.37 C 860.94 372.63 859.01 367.37 863.36 365.30 C 863.58 368.65 863.58 372.01 863.47 375.37 Z" />
<path fill="#5ec44d" opacity="1.00" d=" M 846.34 386.88 C 852.06 384.35 857.88 382.07 863.62 379.57 C 864.01 383.89 862.66 388.00 860.90 391.87 C 860.32 391.65 859.16 391.21 858.59 390.99 C 858.84 393.64 859.23 396.27 859.72 398.89 C 854.99 397.96 850.40 396.48 845.74 395.30 C 850.31 393.49 855.07 392.24 859.60 390.32 C 855.51 388.10 850.63 388.51 846.34 386.88 Z" />
<path fill="#5ec44d" opacity="1.00" d=" M 823.91 424.67 C 826.90 424.01 829.90 423.40 832.91 422.85 C 835.21 446.51 841.46 470.38 837.01 494.17 C 832.64 493.65 828.30 492.90 823.94 492.37 C 823.88 469.80 823.93 447.23 823.91 424.67 Z" />
<path fill="#5ec44d" opacity="1.00" d=" M 747.87 437.57 C 752.45 435.87 757.13 434.25 762.05 433.93 C 756.83 438.46 750.30 441.06 744.28 444.32 C 727.29 451.76 715.31 467.34 697.82 473.88 C 687.23 478.62 675.50 480.00 664.01 479.45 C 662.57 476.38 661.25 473.25 660.28 470.00 C 674.37 472.63 688.68 468.33 701.28 462.18 C 717.04 454.41 731.42 443.95 747.87 437.57 Z" />
<path fill="#5ec44d" opacity="1.00" d=" M 617.67 489.66 C 622.04 488.01 626.32 485.92 631.03 485.40 C 629.23 488.39 626.71 490.91 623.71 492.70 C 616.16 497.26 608.24 501.15 600.70 505.71 C 590.86 511.33 581.24 517.39 571.03 522.34 C 571.08 514.34 570.98 506.35 571.02 498.35 C 575.35 498.79 579.65 499.85 584.02 499.51 C 595.82 498.64 606.80 493.95 617.67 489.66 Z" />
<path fill="#5ec44d" opacity="1.00" d=" M 823.98 495.03 C 833.81 511.35 840.20 529.94 841.44 549.01 C 841.88 557.08 840.90 565.22 838.88 573.04 C 834.65 587.41 830.17 601.78 823.92 615.41 C 823.84 575.29 823.86 535.16 823.98 495.03 Z" />
<path fill="#5ec44d" opacity="1.00" d=" M 456.59 661.73 C 460.50 662.57 463.91 664.74 467.40 666.61 C 472.23 669.19 476.82 672.44 480.26 676.75 C 481.54 679.33 481.71 682.30 482.36 685.08 C 484.04 693.15 485.80 701.31 489.20 708.87 C 490.43 711.68 492.35 714.16 493.47 717.03 C 492.07 725.37 489.30 733.42 487.53 741.69 C 486.27 742.38 485.00 743.07 483.74 743.76 C 485.18 737.79 487.95 732.15 488.56 725.99 C 488.72 722.83 486.72 720.14 485.48 717.38 C 481.16 708.95 476.48 700.24 476.27 690.53 C 474.53 678.14 461.83 672.20 456.59 661.73 Z" />
<path fill="#5ec44d" opacity="1.00" d=" M 728.90 747.57 C 732.39 745.65 735.80 743.59 739.36 741.80 C 739.88 749.66 742.57 757.14 743.77 764.90 C 738.91 759.05 733.01 753.98 728.90 747.57 Z" />
</g>
<g id="#5ab84aff">
<path fill="#5ab84a" opacity="1.00" d=" M 858.33 355.38 C 860.07 355.03 861.83 354.67 863.59 354.31 C 863.56 356.06 863.54 357.81 863.52 359.57 C 861.78 358.17 860.05 356.78 858.33 355.38 Z" />
</g>
</svg>
