<svg xmlns="http://www.w3.org/2000/svg" width="3202.013" height="1392.257" xmlns:v="https://vecta.io/nano"><path d="M390.254 1311.755l-48.199-80.502 48.583-81.133 48.583-81.133 48.408 80.883 47.944 82.091c-1.115 2.907-95.782 160.294-96.415 160.294-.388 0-22.394-36.226-48.904-80.502zm1562.034 79.448c-4.231-.896-7.573-3.155-10.619-7.175-1.363-1.799-23.872-38.933-50.02-82.521l-47.542-79.25 19.703.015 19.703.015 35.768 60.735 36.589 62.033c.548.867 12.907-19.297 37.232-60.749l36.411-62.047h18.762 18.763l-2.59 4.102c-1.424 2.256-23.074 38.144-48.11 79.75l-47.963 78.884c-3.901 5.167-9.962 7.507-16.087 6.209zm-754.828-1.299c-1.679-.762-29.005-27.431-60.724-59.266l-57.671-57.881-.026 58.25-.026 58.25h-15.523-15.524l.274-78.75c.252-72.543.41-79 2.008-81.921 3.66-6.69 11.851-9.775 19.367-7.295 3.01.994 16.316 13.597 61.867 58.604l58.031 57.338.258-57.988.258-57.988h15.492 15.492v77.634l-1.14 81.44c-.627 2.093-2.647 5.266-4.489 7.051-2.855 2.767-4.198 3.294-9.11 3.576-3.464.199-6.979-.222-8.814-1.054zm106.053-2.221c-36.806-9.007-60.581-38.14-63.138-77.364-2.459-37.72 16.085-68.901 48.745-81.964 12.484-4.994 18.289-5.599 53.393-5.573 35.028.027 37.938.381 53.138 6.467 18.267 7.314 33.056 22.103 40.37 40.37 13.648 34.084 6.012 74.082-18.669 97.786-9.645 9.264-20.37 15.222-35.325 19.623-7.914 2.329-69.571 2.843-78.515.655zm74.749-33.183c22.9-8.501 36.068-33.13 31.407-58.743-1.771-9.733-4.13-15.321-9.43-22.346-7.651-10.139-18.279-16.157-32.053-18.15-10.033-1.451-47.305-1.179-56.214.411-25.187 4.494-41.668 27.041-39.511 54.054 1.846 23.116 15.209 40.314 35.553 45.756 5.607 1.5 10.482 1.698 35.5 1.445 26.727-.271 29.451-.461 34.749-2.428zm132.751-32.743v-67.5h-31-31v-16-16h78 78v15.986 15.986l-30.75.264-30.75.264-.257 67.25-.257 67.25h-15.993-15.993zm164.282 66.208c.674-1.756 94.429-157.492 96.913-160.981 2.605-3.66 8.791-6.727 13.565-6.727 4.708 0 10.859 3.764 14.012 8.572 3.737 5.701 96.228 159.443 96.228 159.954 0 .261-8.662.465-19.25.454l-19.25-.02-12-20.456-12-20.456-39.636-.275-39.636-.274 7.636-13.217 7.636-13.217 23.727-.283 23.727-.283-16.212-27.289c-12.369-20.82-16.452-26.957-17.227-25.889-.558.77-16.99 28.454-36.515 61.52l-35.5 60.12-18.357.018c-14.6.014-18.256-.246-17.861-1.274zm342 0c.674-1.756 94.429-157.492 96.913-160.981 2.605-3.66 8.791-6.727 13.565-6.727 4.708 0 10.859 3.764 14.012 8.572 3.737 5.701 96.228 159.443 96.228 159.954 0 .261-8.662.465-19.25.454l-19.25-.02-12-20.456-12-20.456-39.636-.275-39.636-.274 7.636-13.217 7.636-13.217 23.727-.283 23.727-.283-16.212-27.289c-12.369-20.82-16.452-26.957-17.227-25.889-.558.77-16.99 28.454-36.515 61.52l-35.5 60.12-18.357.018c-14.6.014-18.256-.246-17.861-1.274zm235.718-82.208v-83.5h16 16v83.5 83.5h-16-16zm59 0v-83.5h16 16v67.5 67.5h55 55v16 16h-71-71zm147.282 82.208c.674-1.756 94.429-157.492 96.913-160.981 2.605-3.66 8.791-6.727 13.565-6.727 4.708 0 10.859 3.764 14.012 8.572 3.737 5.701 96.228 159.443 96.228 159.954 0 .261-8.662.465-19.25.454l-19.25-.02-12-20.456-12-20.456-39.636-.275-39.636-.274 7.636-13.217 7.636-13.217 23.727-.283 23.727-.283-16.212-27.289c-12.369-20.82-16.452-26.957-17.227-25.889-.558.77-16.99 28.454-36.515 61.52l-35.5 60.12-18.357.018c-14.6.014-18.256-.246-17.861-1.274zm233.718-82.259v-83.552l67.75.365c74.65.402 73.553.315 86.83 6.852 11.449 5.636 18.397 14.56 21.044 27.027 3.626 17.082-1.706 34.003-13.21 41.918l-4.529 3.116 4.307 2.737c16.147 10.26 21.853 32.856 13.759 54.488-5.748 15.362-19.486 26.288-37.304 29.667-2.737.519-34.587.933-71.784.933h-66.863zm132.118 49.746c4.764-1.6 9.699-5.021 12.291-8.518 1.637-2.209 2.092-4.291 2.092-9.573 0-8.303-2.729-13.005-9.5-16.368-4.404-2.188-5.376-2.242-45.75-2.546l-41.25-.31v-13.94-13.94l40.75-.022c38.198-.021 41.018-.144 45.034-1.966 11.137-5.055 11-25.123-.205-30.08-7.411-3.278-16.868-3.892-60.329-3.912l-42.25-.02v51.545 51.545l47.75-.341c34.003-.243 48.791-.69 51.368-1.556zm68.882-49.694v-83.5h16 16v67.5 67.5h55 55v16 16h-71-71zm159 0v-83.5h74.5 74.5v16 16h-58.5-58.5v51.5 51.5h58.5 58.5v16 16h-74.5-74.5zm49-1.5v-14h47 47v14 14h-47-47zM287.2 1144.268l-28.291-46.91 1.657-3.205c.911-1.763 13.486-22.823 27.943-46.8 26.838-44.512 27.85-46.477 41.622-80.831 4.359-10.873 5.193-14.034 5.628-21.33.846-14.214-1.335-22.298-17.118-63.435-2.532-6.6-10.244-28.328-17.138-48.285-20.728-60.005-20.85-60.215-54.88-94.956-12.892-13.161-17.744-17.48-20.5-18.245-1.986-.552-13.961-1.01-26.611-1.019-26.587-.018-36.799-.776-74.5-5.526-34.284-4.32-53.221-7.705-68-12.153-21.352-6.427-35.011-12.825-49.257-23.069L0 672.926l1.667-2.585c11.435-17.726 39.185-42.83 57.811-52.298 12.659-6.435 36.043-10.876 88.331-16.773 61.979-6.991 74.317-9.847 113.204-26.204 7.975-3.355 14.871-6.427 15.324-6.828s-1.15-3.823-3.562-7.605c-16.098-25.238-23.172-46.5-23.082-69.376.098-24.8 7.323-48.77 18.543-61.517 5.803-6.593 20.02-18.383 30.048-24.92 28.426-18.529 65.185-27.957 96.556-24.764 6.42.653 15.17 2.031 19.445 3.062s7.967 1.559 8.205 1.174 17.094-54.356 37.458-119.937l59.767-191.797L542.457 0l4.348 4.802c2.391 2.641 9.335 11.811 15.431 20.378 13.173 18.514 19.015 24.427 29.468 29.824 11.757 6.071 19.999 8.68 44.833 14.192 35.996 7.989 53.953 14.256 83.477 29.132 40.681 20.499 70.807 41.449 88.613 61.626 19.149 21.699 30.324 38.779 67.912 103.802 31.164 53.911 45.631 83.305 55.551 112.874 2.831 8.438 4.718 12.626 5.69 12.626 1.342 0 20.455-4.999 33.123-8.664 4.448-1.287 7.551-3.472 17.763-12.509l12.373-10.951 18.738 2.169 19.035 2.443c.164.151-6.136 5.975-14 12.943-13.52 11.98-14.488 12.641-17.798 12.166-1.925-.276-9.163-1.056-16.085-1.732-12.22-1.194-12.833-1.159-21.164 1.203l-8.58 2.432 9.664 7.729 13.5 11.011 3.836 3.281-4.898 10.015c-2.694 5.508-8.205 19.004-12.247 29.989s-7.727 20.401-8.188 20.924-.839-1.782-.839-5.168c0-9.585-.169-9.726-7.344-6.13l-6.379 3.274c-.123.104 1.315 3.763 3.195 8.131 9.272 21.548 11.318 82.669 6.158 183.943-3.391 66.541-5.24 85.01-10.764 107.5-2.996 12.196-6.817 24-7.77 24-.45 0-4.593-1.758-9.207-3.907s-10.301-4.47-12.638-5.158-4.25-1.818-4.25-2.511.937-3.434 2.081-6.092c7.98-18.53 18.435-54.642 19.995-69.065 3.12-28.846-5.008-63.029-22.851-96.099l-4.495-8.331 4.885.67 10.385 1.49c3.34.498 5.893.444 6.5-.138.616-.591.99-10.629.973-26.159-.024-22.572-.363-27.755-3.254-49.7-4.596-34.889-4.049-32.256-6.571-31.649-1.181.284-12.686 2.155-25.565 4.158-31.702 4.93-39.293 7.567-68.555 23.819l-10.972 6.094 3.972.878c2.185.483 18.259.673 35.722.422l31.75-.171c0 .157-1.687 1.307-3.75 2.556-16.605 10.052-33.955 27.167-51.514 50.816-27.429 36.942-55.551 56.43-84.736 58.724-4.943.388-14.66-.207-28.5-1.748-23.688-2.636-53.903-3.161-64-1.111-8.121 1.649-20.5 5.356-20.5 6.139 0 .349 4.162 3.09 9.25 6.089 10.629 6.267 26.75 16.877 26.75 17.605 0 1.763-34.099 15.242-50.005 19.767-22.239 6.326-53.698 11.547-69.995 11.616-7.55.032-10.268.855-9.493 2.874.341.889 2.624 9.267 5.074 18.619 6.942 26.502 9.823 32.656 20.797 44.415 3.382 3.624 18.66 20.642 33.95 37.818 25.272 28.388 27.773 31.515 27.487 34.371-.297 2.961-2.471.714-37.719-38.979l-38.165-42.121c-.418 0-1.916 2.068-3.329 4.596s-7.246 11.19-12.963 19.25c-12.04 16.975-13.899 20.378-16.572 30.331-4.022 14.98-4.568 22.722-4.568 64.823 0 35.715.216 41.42 1.827 48.291 1.706 7.273 5.121 13.257 51.365 90l50.576 84.444c.912 1.962-2.41 7.983-27.215 49.335l-28.254 47.101-17.035-28.335-17.47-29.91c-.24-.866 4.262-9.382 10.004-18.924l10.44-17.349-35.033-58.076-54.426-90.326c-10.666-17.737-19.705-32.248-20.087-32.245-.598 0-106.205 174.174-108.558 179.035-.66 1.365 1.63 5.933 9.718 19.381l10.582 17.596-17.092 28.741-17.729 29.452c-.35.391-13.368-20.399-28.928-46.2zm105.89-270.467l45.962-75.5c.297-.024 13.106 20.768 28.464 46.205 44.817 74.227 40.9 68.112 41.628 64.973.347-1.498.685-15.372.75-30.833.113-26.806-1.106-46.979-3.95-65.39-1.693-10.96-.085-9.998-16.749-10.013-17.213-.015-28.943-2.054-40.168-6.98-7.752-3.402-20.002-11.723-22.491-15.276-.813-1.161-1.619-1.912-1.791-1.671l-5.81 7.94c-3.023 4.125-8.058 11.38-11.189 16.123-12.808 19.402-31.93 31.122-53.075 32.531-12.115.807-20.757-1.329-34.91-8.629-6.462-3.333-11.75-5.845-11.75-5.582s2.235 7.889 4.967 16.946 5.893 21.113 7.024 26.79c2.976 14.924 6.227 24.161 15.248 43.321 10.121 21.495 11.761 26.258 11.761 34.157 0 3.489.147 6.343.328 6.343s20.768-33.955 45.75-75.455zm-18.968-55.786c6.438-3.265 22.89-18.035 22.89-20.549 0-.758-2.787.168-7.219 2.4-12.416 6.253-38.414 15.539-53.245 19.019-5.734 1.345.433 2.228 16.073 2.301l15.11.07zm115.573-36.523c12.817-4.773 23.222-12.787 30.482-23.478 3.688-5.43 8.251-14.677 7.576-15.352-.171-.171-4.429.981-9.463 2.559-11.611 3.64-24.895 5.917-43.277 7.417-8.955.731-13.546 1.446-12.005 1.871 1.372.378 11.947 1.654 23.5 2.835s21.337 2.449 21.743 2.818c1.11 1.008-11.649 5.683-20.739 7.598-5.369 1.131-16.332 1.957-33.338 2.512-13.936.455-25.541 1.029-25.788 1.277-.806.806 8.957 6.405 15.965 9.157 9.822 3.857 13.805 4.487 26.161 4.141 9.335-.261 12.238-.769 19.182-3.355zm-97.682-32.363c29.436-19.796 42.342-30.105 60.843-48.601 16.229-16.224 16.339-16.31 15.662-12.305-.8 4.733-.852 4.721 11.744 2.657 4.263-.699 7.75-1.124 7.75-.945s-6.3 8.535-14 18.569-14 18.546-14 18.917c0 1.133 8.986 3.699 19 5.426 11.013 1.899 24.546 1.498 35.636-1.056 6.678-1.538 7.175-1.84 7.75-4.714 1.687-8.436-.197-20.58-4.514-29.101-5.357-10.574-12.538-16.304-25.495-20.343l-8.16-2.544 1.379-5.912c.759-3.251 3.682-12.242 6.496-19.979s4.945-14.238 4.735-14.448-3.631 2.556-7.604 6.146l-7.223 6.527v-13.238c0-13.067-.025-13.215-1.953-11.471-3.04 2.751-11.448 15.356-15.038 22.543-1.786 3.575-3.445 6.715-3.688 6.977s-1.977-1.313-3.853-3.5l-3.412-3.977-5.789 6-22.999 24.5c-18.106 19.463-33.144 33.595-44.787 42.091-3.839 2.801-13.955 8.635-22.48 12.964-19.054 9.676-25.783 14.075-33.469 21.882-5.952 6.045-5.96 6.063-3 6.056 4.761-.011 18.376-3.603 26.024-6.865 14.583-6.22 25.775-13.364 53.444-34.116 17.677-13.258 24.98-18.365 25.507-17.838.997.997-12.705 17.092-30.75 36.12-25.416 26.802-27.591 29.182-25.757 28.183.825-.449 10.725-7.021 22-14.603zm-73.595-14.014c-1.048-1.177-14.121-12.637-29.051-25.467-30.282-26.021-45.312-40.497-56.173-54.098l-7.319-9.166-9.681 4.488c-21.7 10.061-49.886 26.314-47.19 27.213 2.345.782 14.873-2.139 24.663-5.75l10.303-3.8 9.818 4.172c11.529 4.899 16.083 7.882 26.551 17.39 15.873 14.417 32.544 25.613 53.174 35.712 10.577 5.177 24.438 11.16 26.405 11.398.223.027-.452-.914-1.5-2.091zm12.595-36.821c0-2.376-26.327-27.833-45.202-43.709l-21.352-18.417c-.846-1.369 4.841-3.505 14.6-5.482 6.703-1.358 11.56-1.599 23.454-1.161 8.25.304 15.65.705 16.444.891 1.049.246 2.008-1.853 3.5-7.661l2.056-8 16.572-.621c9.115-.342 20.387-1.163 25.049-1.825l8.477-1.203 10.981-9.675 14.847-12.753 3.866-3.078-3.574-10.672c-2.075-6.197-3.116-10.672-2.482-10.672.6 0 8.668 3.675 17.927 8.167s17.008 7.979 17.219 7.75 2.19-4.017 4.398-8.417 5.15-9.058 6.538-10.351c1.486-1.384 6.155-3.371 11.352-4.832 14.08-3.958 21.421-8.349 32.711-19.567 5.435-5.401 9.622-10.08 9.304-10.397-.844-.844-8.539 1.125-32.686 8.363-21.464 6.434-40.718 11.295-44.5 11.234-1.623-.026-1.198-.757 2.25-3.877 2.337-2.115 4.25-4.251 4.25-4.747s-2.213-3.081-4.917-5.745c-4.874-4.801-4.965-4.839-10.408-4.388-7.889.654-10.678 2.768-10.663 8.079.007 2.325.676 6.702 1.488 9.727 2.328 8.675 2.643 8.261-9.336 12.311-9.98 3.374-25.693 6.494-26.856 5.331-.271-.271 1.462-1.735 3.85-3.253 14.228-9.049 20.627-13.513 22.842-15.934l2.5-2.733-8.5.638c-4.675.351-14.483 1.709-21.796 3.018s-13.026 2.097-12.697 1.751 5.185-3.35 10.792-6.676l10.193-6.047 1.235-6.953c.679-3.824 1.497-8.046 1.818-9.382.645-2.685.056-3.451 7.824 10.169l2.703 4.74 3.845-2.427c5.837-3.685 13.227-5.385 28.143-6.477 7.458-.546 14.433-1.29 15.5-1.653 1.882-.641 27.486-12.514 28.389-13.164.247-.178-4.111-4.921-9.684-10.541l-10.134-10.217 1.032-5.5c.567-3.025.851-10 .63-15.5-.445-11.072-2.124-15.638-7.701-20.936l-3.09-2.936-3.588 1.711c-5.897 2.812-16.543 13.736-27.842 28.569-.918 1.204 1.513 1.305 16.806.693 16.998-.68 17.843-.626 17.143 1.092-.405.994-2.04 5.612-3.635 10.263s-3.252 8.809-3.683 9.24-4.447-2.114-8.925-5.655l-8.142-6.438-.534 2.699-1.178 6.439-.644 3.74-2.641-1.973-7.246-5.479-4.605-3.506-3.755 14.739c-2.065 8.106-4.142 15.414-4.614 16.239-.523.913-.871-2.404-.89-8.478l-.03-9.978-3.168 3.978c-4.937 6.2-14.675 15.341-22.082 20.729-3.712 2.7-6.75 5.073-6.75 5.273s2.709 1.58 6.021 3.066 5.841 2.882 5.621 3.102-4.224-.153-8.898-.829c-12.21-1.765-14.81-.574-29.885 13.689-6.579 6.225-13.851 12.207-16.16 13.292-10.349 4.864-62.316 25.848-72.698 29.355-22.919 7.741-31.418 9.33-76.5 14.297-37.927 4.179-56.395 7.175-73.938 11.996-27.707 7.614-54.347 21.962-53.383 28.751.692 4.871 8.744 3.378 37.275-6.913 32.826-11.84 48.437-15.551 87.546-20.811 28.37-3.815 40.166-5.927 66.734-11.945 24.87-5.634 46.752-10.088 66.451-13.528 7.358-1.285 17.541-4.118 27.5-7.652 34.782-12.342 41.358-13.91 51.565-12.295 3.438.544 9.065 2.296 12.505 3.894 6.73 3.127 17.245 9.765 17.245 10.888 0 1.05-13.113 5.92-23.226 8.626-4.968 1.329-9.198 2.583-9.4 2.785s3.231 1.141 7.629 2.086 7.997 1.885 7.997 2.088c0 .692-12.478 4.487-19.5 5.929-3.85.791-14.425 2.183-23.5 3.094-23.167 2.324-31.181 4.298-50.253 12.376-17.728 7.508-36.404 14.481-48.988 18.291-4.257 1.289-7.745 2.681-7.75 3.093s.395.75.889.75c.882 0 15.812 8.946 47.601 28.521 12.132 7.471 46.443 26.283 48.25 26.455.138.013.25-.409.25-.938zm69-9.757c5.679-3.827 15.623-12.752 29.965-26.895l21.465-21.168-4.965-5.684-8.602-9.822-3.637-4.138-7.287 14.463c-8.601 17.069-7.803 17.894-10.588-10.937l-1.777-18.399-7.222 7.656c-3.972 4.211-10.334 11.815-14.138 16.899-9.937 13.281-27.215 38.363-27.215 39.507 0 .536 5.849 4.259 12.998 8.273s12.865 7.433 12.703 7.595c-.868.868-21.661-5.301-38.977-11.563l-21.5-7.694c-.948-.298.751 1.087 3.776 3.077 13.128 8.64 47.639 24.459 53.5 24.524 2.03.022 5.747-1.818 11.5-5.695zm134.808-37.743c9.18-4.654 29.517-15.925 45.192-25.045 34.704-20.193 62.809-34.43 72.588-36.77 3.898-.933 14.698-2.386 24-3.228 21.549-1.952 26.623-2.884 38.154-7.005 12.471-4.457 26.284-12.401 41.244-23.721 19.071-14.43 21.99-16.319 38.944-25.201 8.742-4.58 19.79-10.866 24.55-13.968 17.253-11.246 23.243-13.549 53.521-20.577 20.325-4.718 34.267-8.798 33.816-9.898-.174-.424-4.366-4.552-9.316-9.173s-9.111-8.638-9.247-8.927 2.339-1.865 5.5-3.504c7.532-3.903 19.852-16.278 23.917-24.021 3.112-5.929 6.639-16.629 7.774-23.582l.584-3.582 12.475.082 12.475.082 5.574-5.574 5.574-5.574-11.141-3.814c-10.425-3.568-11.644-3.772-18.961-3.162-7.993.667-21.375 3.67-25.004 5.612-2.902 1.553-6.172 8.641-10.847 23.51-4.372 13.905-8.09 20.881-12.986 24.368-8.281 5.896-33.798 14.555-76.725 26.035-16.478 4.407-36.936 10.229-45.461 12.938s-22.372 6.339-30.77 8.066c-25.601 5.265-30.939 7.826-53.08 25.47-29.448 23.467-34.308 25.444-71.65 29.153-23.387 2.323-28.82 3.521-72.798 16.046l-20.798 5.923.388 37c.331 31.562.646 37.882 2.144 43 1.838 6.279 2.356 7.5 3.182 7.5.275 0 8.01-3.808 17.191-8.462zm-9.201-12.12c-.334-.87-.607-8.671-.607-17.334v-15.753l6.25.903c14.32 2.068 28.38-.809 59.832-12.241 12.225-4.444 22.924-7.946 23.774-7.782 2.793.538-10.791 10.233-27.356 19.523l-38.178 21.62-22.643 12.647c-.256 0-.738-.712-1.072-1.582zm138.204-68.804l-2.689-6.614 10.189-.008c24.147-.018 41.082-5.954 77.878-27.297 28.494-16.528 47.633-25.158 60.311-27.195l4-.643-4.715 3.051c-2.593 1.678-11.747 6.768-20.341 11.312-11.323 5.986-20.352 11.799-32.785 21.109-19.938 14.929-27.154 19.417-38.967 24.233-11.724 4.78-23.916 7.355-38.191 8.067l-12 .599zM460.92 618.12c3.918-8.875 7.407-17.268 7.754-18.651.619-2.468.486-2.435-7.265 1.776-14.87 8.078-25.396 14.163-25.396 14.681 0 .867 16.226 18.331 17.032 18.331.413 0 3.957-7.262 7.875-16.137zm6.32-88.54c14.15-4.273 25.175-8.066 24.5-8.43-4.799-2.585-26.962-5.136-34.857-4.012-5.993.853-27.933 9.509-27.823 10.976.052.689 10.95 9.112 11.89 9.189.309.025 12.14-3.45 26.29-7.723zm341.772-61.26l61.675-17.539c7.15-3.24 11.349-9.29 15.713-22.636 1.908-5.836 3.765-12.185 4.125-14.108l.656-3.496-16.835 4.902-68.835 19.903c-63.911 18.436-112.5 33.538-112.5 34.964 0 .346 10.013 3.443 22.25 6.882l23.25 6.641c4.208 1.633 18.144-1.433 70.5-15.512zm-90.5-11.953l93.5-27.453c78.592-22.952 88-25.871 88-27.302 0-2.96-8.554-34.178-13.251-48.357-5.401-16.306-16.936-40.707-23.333-49.357-3.295-4.455-3.854-4.806-6.754-4.233-1.739.343-6.425 2.17-10.412 4.058-6.393 3.028-7.25 3.22-7.25 1.626 0-.994.496-7.731 1.102-14.97 2.484-29.671-3.746-56.248-17.806-75.967-14.067-19.729-51.447-52.829-83.182-73.657-21.006-13.787-51.446-30.131-66.114-35.5-2.04-.747-11.216-1.568-22-1.968-22.064-.82-22.464-.955-39.044-13.193-15.145-11.179-22.087-15.428-40.113-24.549-19.446-9.839-19.562-9.992-27.638-36.29-1.682-5.477-3.175-8.865-3.526-8-1.374 3.39-99.944 318.444-114.21 365.041-.331 1.08 1.205 2.364 5.139 4.293 3.086 1.514 10.521 5.881 16.522 9.705 25.278 16.109 34.705 18.561 52.007 13.528 4.599-1.338 20.512-6.743 35.362-12.011 55.738-19.775 81.944-24.847 111.607-21.6 31.721 3.472 58.193 15.079 78.249 34.311l9.143 8.767-14-.767c-24.73-1.355-47.676-.78-61 1.529-18.72 3.244-18.298 2.664-7.682 10.568 14.404 10.725 22.964 21.005 26.537 31.869.313.953 1.149 1.53 1.858 1.281s17.938-5.38 38.288-11.404zm244.02-5.361c.374-1.788 2.908-8.589 5.631-15.115s4.782-12.035 4.574-12.242c-.347-.347-29.579 11.126-30.375 11.923-.193.193 3.917 1.423 9.134 2.733s9.155 2.658 8.75 2.996-4.68 2.109-9.502 3.935-8.591 3.496-8.376 3.711c.48.48 16.685 5.101 18.313 5.222.644.048 1.476-1.375 1.85-3.163zm11.821-32.407l3.842-.635-.672-4.482c-.37-2.465-.906-5.091-1.191-5.835-.572-1.49-10.938-5.108-11.894-4.151-.329.329.161 4.01 1.088 8.179 1.822 8.189 1.708 8.1 8.827 6.924zm851.652 679.722c-5.008-1.524-8.846-4.091-12.758-8.535-3.205-3.641-8.083-13.963-24.706-52.283l-42.306-97.497-22.238-49.75c-.355 0-13.207 46.125-28.561 102.5l-27.915 102.5h-26.755c-16.538 0-26.755-.369-26.755-.966 0-.849 32.047-118.415 66.502-243.968 6.405-23.339 12.481-44.039 13.504-46 4.707-9.032 12.373-13.397 23.494-13.381 9.202.013 16.088 2.95 21.79 9.293 3.676 4.088 10.262 18.55 50.147 110.114l46.239 105.824c.178.229.562.178.853-.113s21.184-47.869 46.428-105.728l48.574-108.706c6.52-8.549 16.918-12.561 27.201-10.495 8.116 1.63 14.28 6.605 18.121 14.625 1.408 2.94 74.337 268.659 78.701 286.75l.663 2.75h-27.031-27.031l-1.031-3.25c-.567-1.787-12.987-47.35-27.6-101.25l-27.438-100c-.83-1.91-.914-1.887-1.868.5-.549 1.375-15.722 36.25-33.718 77.5l-41.761 95.781c-10.069 23.141-13.662 28.377-22.202 32.354-5.207 2.425-15.03 3.109-20.545 1.431zM649.013 944.757v-150.5h112.25l121.25 1.1c25.318 3.087 44.619 11.554 60.511 26.546 23.34 22.018 34.482 56.052 31.019 94.752-3.557 39.757-22.014 68.928-53.28 84.206-3.162 1.545-5.728 3.053-5.701 3.351s20.014 20.792 44.417 45.542l44.368 45-38.099.262-38.099.262-2.752-2.636c-1.513-1.45-18.644-20.124-38.067-41.497l-35.316-38.861-56.25-.015-56.25-.012V988.41v-23.847l69.565-.725c75.027-.782 74.767-.763 86.228-6.34 11.155-5.428 20.338-17.736 23.733-31.811 2.303-9.548 2.898-22.25 1.478-31.56-3.719-24.384-15.93-38.396-37.703-43.263-6.307-1.41-17.778-1.609-92.75-1.609h-85.553v123 123h-27.5-27.5zm469 27.5v-123h-56.5-56.5v-27.5-27.5h141.016 141.016l-.266 27.25-.266 27.25-56.75.258-56.75.258v122.992 122.992h-27.5-27.5zm200-27.5v-150.5h135.016 135.016l-.266 27.25-.266 27.25-107.135.255-107.135.255-.678 32.245c-.373 17.735-.537 60.821-.365 95.746l.313 63.5 107.75.255 107.75.255v26.995 26.995h-135-135zm774 0v-150.5h27.5 27.5v150.5 150.5h-27.5-27.5zm107 123.5v-27l65.25-.119 120.305-.75 55.055-.631 7.658-3.786c12.172-6.018 18.227-15.294 19.442-29.784 1.281-15.279-5.526-29.195-17.209-35.184-9.907-5.078-8.394-4.99-98-5.721l-84-.685-9.306-2.666c-41.989-12.027-64.856-43.72-62.895-87.174.963-21.338 8.04-39.181 21.102-53.203 10.537-11.312 21.582-17.96 37.015-22.279 17.689-4.95 18.529-4.981 138.334-5l112.25-.018v27.5 27.5h-111.29c-120.6 0-117.809-.119-126.543 5.394-9.156 5.78-13.295 13.976-13.939 27.606-.367 7.772-.082 10.535 1.564 15.19 2.567 7.255 6.144 11.92 12.043 15.706 9.573 6.143 8.986 6.104 92.624 6.108l85.04 1.064c13.226 1.559 23.798 4.544 34.5 9.74 7.877 3.825 10.973 6.071 18.124 13.153 7.066 6.997 9.359 10.076 12.691 17.041 11.76 24.576 13.217 57.226 3.685 82.615-10.792 28.747-34.712 46.552-68.934 51.312-5.132.714-47.315 1.072-126.138 1.072h-118.428zm-791-126v-23h84 84v23 23h-84-84zm-381.935-552.903l-6.435-.597 6.217-5.376c5.887-5.091 6.451-5.35 10.616-4.881 4.356.491 4.553.375 20.218-11.918l17.791-14.369c1.961-1.944 1.955-1.955-1-1.984-1.635-.016-11.297-.678-21.472-1.472l-19.673-1.472c-.645-.016-2.556 1.135-4.246 2.557-2.915 2.452-3.46 2.549-10.591 1.881-4.135-.387-7.685-.989-7.889-1.336s3.797-3.875 8.891-7.839l9.262-7.208 38.873 2.967 39.719 3.24c.466.15-12.947 11.058-29.806 24.24l-30.652 23.968-6.694.097c-3.682.053-9.59-.172-13.129-.5z" fill="red" opacity=".5"/></svg>