<svg xmlns="http://www.w3.org/2000/svg" width="276.328" height="277.267" xmlns:v="https://vecta.io/nano"><path d="M37.321 277.266c-7.249-.467-14.32-2.937-20.241-7.072-2.011-1.404-3.587-2.728-5.393-4.532-4.488-4.481-7.778-9.819-9.717-15.761-1.004-3.078-1.597-6.062-1.878-9.455-.121-1.465-.121-202.054 0-203.52.588-7.105 2.758-13.395 6.618-19.187C10.987 11.32 17.25 6.137 24.305 3.176 28.898 1.249 33.349.265 38.385.061c2.072-.084 197.531-.082 199.544.002 5.149.214 9.683 1.233 14.304 3.215 8.516 3.652 15.673 10.409 19.836 18.728 2.594 5.184 3.951 10.485 4.195 16.392.085 2.056.085 198.52 0 200.576-.072 1.731-.194 3.044-.423 4.544-2.125 13.903-11.448 25.667-24.529 30.953a42.96 42.96 0 0 1-6.279 1.939c-1.436.317-2.637.507-4.96.782l-202.752.073zm119.17-58.109l18.281-30.512c-.034-.118-36.584-60.9-36.622-60.902-.019-.001-8.28 13.71-18.357 30.468l-18.322 30.47.409.682 18.284 30.41 17.903 29.776c.016.026.049.048.075.048s8.282-13.698 18.348-30.44zm-57.79-56.886l6.577-11.008c0-.036-1.674-2.882-3.72-6.324l-3.72-6.258 20.142-33.884 20.215-33.806c.108.114 40.164 67.515 40.198 67.639.017.061-1.532 2.73-3.694 6.368l-3.665 6.359 13.163 21.867c.053.056 2.715-4.374 10.357-17.234l10.286-17.309-33.326-56.062-33.367-56.062c-.023 0-14.94 25.063-33.149 55.696L71.67 138.316l-.218.366 10.292 17.313 10.336 17.266c.024-.026 3.004-4.971 6.621-10.989z"/><path d="M81.991 155.817c-5.546-9.292-9.97-17.19-9.832-17.551s10.416-17.742 22.838-38.624l32.832-55.198c5.635-9.477 10.392-17.062 10.571-16.856.407.47 62.641 105.173 64.594 108.673l1.432 2.567-9.918 16.703c-5.455 9.187-10.087 16.651-10.293 16.587-.455-.141-12.65-20.17-12.65-20.777 0-.236 1.618-3.187 3.595-6.557l3.595-6.129-19.228-32.361-20.268-34.07-1.039-1.709-1.549 2.475c-.852 1.361-10.01 16.69-20.35 34.064L97.52 138.642l3.567 6.048c1.962 3.327 3.567 6.276 3.567 6.554s-2.831 5.222-6.29 10.986l-6.29 10.48zm38.078 63.227l-17.968-30.37c0-.396 35.265-59.406 35.99-60.223.176-.198 35.744 59.144 35.937 59.958.131.552-35.404 60.465-35.862 60.465-.071 0-8.215-13.424-18.097-29.831z" fill="#fff"/></svg>