<?xml version="1.0" encoding="UTF-8" ?>
<!DOCTYPE svg PUBLIC "-//W3C//DTD SVG 1.1//EN" "http://www.w3.org/Graphics/SVG/1.1/DTD/svg11.dtd">
<svg width="360pt" height="600pt" viewBox="0 0 360 600" version="1.1" xmlns="http://www.w3.org/2000/svg">
<g id="#b0bec9ff">
<path fill="#b0bec9" opacity="1.00" d=" M 178.81 10.57 C 184.39 15.94 186.89 24.38 194.29 27.73 C 199.43 30.35 205.20 31.10 210.76 32.37 C 224.57 35.46 237.10 42.49 248.82 50.21 C 259.93 57.98 266.91 69.95 273.64 81.40 C 281.97 95.98 291.21 110.35 295.90 126.63 C 301.60 125.02 307.33 123.43 313.21 122.55 C 312.84 120.77 312.45 119.00 312.02 117.24 C 323.20 118.81 333.66 112.79 344.81 113.66 C 336.40 118.27 326.85 120.09 318.23 124.23 C 316.33 125.42 314.08 124.59 312.01 124.60 C 308.98 124.64 306.08 125.64 303.14 126.26 C 305.99 128.33 308.71 130.58 311.35 132.92 C 307.96 138.99 305.95 145.70 303.67 152.24 C 303.45 150.44 303.25 148.63 303.08 146.83 C 301.68 147.54 300.29 148.25 298.89 148.95 C 299.62 149.91 300.41 150.85 301.03 151.90 C 304.79 171.72 302.78 192.02 301.75 212.02 C 301.62 225.55 300.23 239.61 293.72 251.71 C 288.21 262.05 281.91 272.25 273.07 280.09 C 268.36 284.36 262.54 287.59 259.07 293.08 C 254.45 299.40 257.05 307.76 254.38 314.75 C 252.12 313.37 250.20 311.54 248.50 309.52 C 226.20 284.48 203.90 259.43 181.77 234.23 C 179.12 240.44 173.09 244.78 171.81 251.62 C 170.46 257.64 170.95 263.87 170.90 269.99 C 171.00 275.88 170.26 281.99 172.30 287.66 C 173.76 292.69 176.42 297.27 179.57 301.42 C 183.89 307.24 186.90 313.91 191.37 319.63 C 193.93 322.88 195.82 326.58 198.15 330.00 C 180.81 346.08 165.10 363.89 147.29 379.46 C 130.62 363.82 115.00 347.09 98.46 331.31 C 100.84 327.71 103.07 324.02 105.41 320.40 C 110.19 312.67 113.19 304.05 116.77 295.75 C 119.07 289.96 116.90 283.74 114.70 278.28 C 110.12 267.47 107.27 256.04 102.77 245.20 C 99.66 237.55 93.00 232.34 87.56 226.43 C 85.76 224.21 82.63 224.49 80.08 224.50 C 70.17 225.06 60.34 223.48 50.54 222.34 C 39.00 220.88 27.05 218.29 17.90 210.65 C 19.77 208.00 21.61 205.27 24.10 203.14 C 28.61 199.19 33.07 194.75 38.97 192.97 C 53.09 188.96 68.00 189.56 82.24 186.17 C 88.53 184.70 94.35 181.85 100.34 179.54 C 95.71 172.94 91.86 165.27 92.08 157.01 C 92.19 150.36 93.31 143.09 98.00 138.02 C 109.41 126.12 127.37 120.37 143.38 125.15 C 154.77 86.83 167.32 48.85 178.81 10.57 M 144.49 126.13 C 149.43 128.05 153.44 131.70 158.32 133.72 C 163.69 135.83 169.08 132.78 174.13 131.16 C 186.68 126.43 200.16 121.52 213.75 124.28 C 222.69 125.61 230.87 130.45 236.73 137.28 C 227.50 135.65 217.91 135.54 208.80 137.95 C 213.25 141.01 218.18 144.26 219.52 149.89 C 241.27 142.92 263.35 137.03 285.21 130.41 C 282.26 119.76 279.70 108.63 272.96 99.60 C 270.73 100.55 268.56 101.62 266.42 102.74 C 268.21 94.98 267.75 86.69 264.63 79.34 C 262.89 75.36 259.92 72.13 256.95 69.03 C 245.92 57.88 232.73 48.89 218.34 42.68 C 213.15 40.59 206.83 43.56 202.18 39.87 C 197.94 36.67 193.63 33.50 188.82 31.21 C 186.85 30.19 184.69 29.44 182.97 28.01 C 180.14 24.95 179.98 20.54 178.78 16.74 C 167.29 53.18 156.14 89.74 144.49 126.13 M 286.72 129.79 C 283.72 134.61 284.39 141.83 278.96 144.91 C 270.76 148.87 261.72 150.56 253.01 153.04 C 246.07 154.76 239.42 157.57 232.30 158.50 C 224.79 159.61 219.59 165.52 213.77 169.76 C 209.59 172.95 204.21 173.81 199.10 174.11 C 189.08 174.55 179.67 178.27 170.09 180.85 C 170.81 189.45 168.72 198.22 171.36 206.64 C 184.05 201.05 195.30 192.72 207.89 186.93 C 213.75 184.00 220.58 185.47 226.73 183.63 C 233.29 182.13 239.07 178.44 244.16 174.16 C 248.25 170.65 253.23 168.51 257.93 165.97 C 260.96 164.36 263.55 161.98 266.78 160.71 C 273.37 158.03 280.52 157.28 287.31 155.20 C 285.26 153.31 283.20 151.44 281.04 149.68 C 283.63 148.16 286.46 146.78 288.34 144.35 C 290.95 141.29 291.92 137.27 292.66 133.42 C 295.14 133.43 297.61 133.45 300.08 133.47 C 301.17 132.36 302.27 131.26 303.36 130.14 C 300.94 129.47 298.60 128.53 296.14 128.03 C 292.94 128.25 289.84 129.16 286.72 129.79 M 304.43 130.13 C 303.61 132.34 304.81 136.82 307.81 134.90 C 309.32 132.37 306.08 131.19 304.43 130.13 M 223.04 150.62 C 228.40 151.77 233.54 153.90 238.97 154.70 C 251.15 151.96 263.18 148.52 275.18 145.11 C 280.49 143.66 280.83 137.21 282.52 132.90 C 262.75 139.00 242.71 144.21 223.04 150.62 M 297.45 140.25 C 299.50 140.33 301.29 140.91 302.82 141.99 C 301.64 143.85 298.51 143.06 296.61 143.95 C 298.85 144.63 301.12 145.24 303.38 145.87 C 304.42 142.81 305.46 139.74 306.62 136.72 C 303.58 137.95 300.53 139.13 297.45 140.25 M 137.27 151.76 C 140.85 151.74 144.43 151.61 148.00 151.38 C 147.07 153.76 146.26 156.18 145.48 158.62 C 143.76 157.07 142.00 155.56 140.20 154.10 C 140.05 155.57 139.89 157.04 139.72 158.51 C 138.27 157.24 136.87 155.92 135.46 154.61 C 134.60 158.55 133.82 162.52 132.48 166.33 C 132.27 163.56 132.52 160.80 132.92 158.07 C 130.28 161.68 127.13 164.94 123.19 167.16 C 125.01 168.07 126.82 168.99 128.62 169.95 C 129.09 167.65 129.46 165.32 129.93 163.02 C 130.96 164.99 132.01 166.94 133.04 168.91 C 135.66 167.07 138.77 165.80 142.02 166.15 C 147.04 166.95 150.97 163.09 155.62 162.00 C 153.50 159.98 151.43 157.90 149.35 155.83 C 150.74 151.20 150.78 145.86 146.99 142.31 C 142.89 144.47 140.14 148.26 137.27 151.76 M 279.38 158.67 C 272.18 159.78 265.76 163.47 259.59 167.15 C 267.05 167.42 274.49 167.13 281.94 166.76 C 275.96 170.33 270.64 174.96 266.62 180.66 C 260.87 188.80 253.76 197.04 243.77 199.78 C 237.43 201.79 230.89 199.56 224.49 199.19 C 218.26 198.49 211.90 199.13 206.02 201.34 C 209.93 203.47 213.71 205.82 217.43 208.26 C 205.27 214.38 191.73 217.69 178.11 217.76 C 180.86 223.38 180.32 230.44 184.69 235.27 C 207.09 260.39 229.35 285.64 251.82 310.71 C 250.82 305.73 248.58 300.48 250.23 295.43 C 254.54 289.69 258.18 283.48 260.80 276.78 C 262.96 271.34 270.27 271.99 273.46 267.51 C 283.77 254.44 290.46 238.86 294.76 222.87 C 297.28 210.59 293.35 197.96 286.88 187.54 C 289.16 187.94 291.46 188.35 293.76 188.71 C 295.52 177.90 292.63 167.20 291.87 156.45 C 287.74 157.41 283.56 158.04 279.38 158.67 M 145.32 167.94 C 146.54 168.75 147.76 169.56 148.99 170.36 C 154.18 168.64 159.45 167.24 164.71 165.73 C 161.49 165.02 158.21 164.45 154.91 164.45 C 151.41 164.51 148.41 166.57 145.32 167.94 M 141.34 173.47 C 142.52 172.45 143.69 171.44 144.83 170.38 C 143.85 169.43 142.84 168.53 141.78 167.68 C 140.05 167.32 138.40 168.30 136.74 168.66 C 137.19 170.89 137.80 173.09 138.28 175.33 C 134.24 176.87 130.16 178.58 125.72 178.14 C 129.06 176.09 132.57 174.30 135.55 171.72 C 130.48 171.40 125.70 173.27 120.73 173.81 C 123.11 172.35 125.69 171.24 128.14 169.89 C 126.03 169.56 123.95 169.07 121.83 168.79 C 116.18 169.48 114.12 176.05 108.93 177.75 C 101.17 180.65 93.74 184.40 85.82 186.86 C 77.71 189.31 69.22 189.62 60.87 190.65 C 49.15 192.10 36.27 193.76 27.32 202.25 C 30.58 203.35 33.72 201.71 36.76 200.71 C 45.15 197.50 53.83 194.81 62.81 193.97 C 72.51 192.92 82.03 190.85 91.50 188.60 C 98.57 186.79 105.99 186.47 112.85 183.86 C 117.58 182.09 122.36 180.45 127.29 179.33 C 127.46 180.52 127.79 182.90 127.96 184.09 C 128.27 182.54 128.56 180.99 128.85 179.44 C 131.80 181.01 134.68 182.71 137.48 184.53 C 134.17 186.35 130.53 187.35 126.81 187.93 C 128.62 188.40 130.42 188.89 132.20 189.47 C 134.16 187.87 136.10 186.24 138.00 184.57 C 137.17 182.35 136.29 180.15 135.49 177.92 C 139.19 179.50 142.82 181.25 146.34 183.21 C 147.58 181.17 148.48 178.87 150.14 177.12 C 151.77 176.23 153.68 176.10 155.41 175.46 C 159.84 174.01 163.09 170.45 166.02 167.00 C 157.80 169.22 149.82 172.32 141.34 173.47 M 147.44 193.73 C 149.12 195.56 150.81 197.40 152.43 199.30 C 154.18 195.62 155.84 191.91 157.52 188.20 C 154.12 189.98 150.77 191.83 147.44 193.73 M 107.53 194.41 C 100.85 197.18 94.21 200.14 87.16 201.86 C 97.25 206.96 106.33 213.86 116.59 218.67 C 110.96 211.05 102.86 205.85 95.99 199.46 C 101.45 197.55 107.35 196.92 113.02 198.27 C 113.43 196.67 113.85 195.08 114.28 193.49 C 120.30 192.66 127.77 194.60 132.35 189.63 C 124.29 192.49 115.42 191.03 107.53 194.41 M 126.49 209.98 C 129.50 211.51 132.55 213.00 135.40 214.82 C 128.07 213.97 121.56 210.22 114.58 208.12 C 120.67 211.77 127.01 215.08 133.83 217.15 C 140.97 213.09 145.92 206.42 151.93 201.02 C 150.21 199.14 148.52 197.24 146.85 195.32 C 145.43 198.44 144.07 201.59 142.48 204.62 C 141.68 200.00 141.51 195.30 141.20 190.63 C 135.55 196.49 131.20 203.39 126.49 209.98 M 154.99 205.27 C 154.28 204.27 153.57 203.28 152.86 202.29 C 145.29 210.23 138.38 219.01 129.24 225.25 C 123.43 228.62 116.60 230.75 112.40 236.36 C 116.26 235.47 120.18 234.60 123.69 232.70 C 131.80 228.69 138.17 222.02 145.92 217.44 C 140.52 225.16 133.20 231.22 127.07 238.31 C 137.99 230.73 149.51 223.50 157.82 212.91 C 157.62 213.82 157.22 215.65 157.03 216.57 C 159.20 216.16 161.36 215.71 163.53 215.26 C 160.38 219.14 157.41 223.16 154.28 227.05 C 160.42 228.77 167.06 229.67 173.15 227.19 C 174.56 219.88 169.32 212.09 161.70 211.49 C 162.10 207.03 164.34 203.08 165.83 198.93 C 164.14 200.48 162.53 202.09 160.90 203.69 C 160.96 200.92 160.97 198.15 160.88 195.38 C 158.37 198.31 156.29 201.62 154.99 205.27 M 67.93 212.37 C 71.59 212.03 75.14 210.96 78.27 209.01 C 81.72 210.70 85.63 211.77 88.37 214.61 C 95.41 221.44 104.10 226.34 113.21 229.84 C 103.82 220.89 92.69 213.59 85.10 202.86 C 79.28 205.85 73.13 208.34 67.93 212.37 M 154.69 234.89 C 159.76 235.81 164.95 235.67 170.01 236.63 C 162.12 240.26 153.22 239.68 144.76 239.77 C 150.82 244.48 159.67 245.24 166.35 241.40 C 170.57 239.33 173.07 235.17 174.91 231.03 C 168.56 234.10 161.50 233.98 154.69 234.89 M 130.93 257.39 C 130.88 256.65 130.80 255.16 130.76 254.42 C 129.41 255.99 128.04 257.54 126.66 259.09 C 120.40 259.73 114.21 258.04 109.14 254.30 C 110.90 258.90 112.52 263.57 113.29 268.45 C 114.52 275.87 119.02 282.09 121.37 289.12 C 121.89 292.45 120.45 295.69 119.83 298.92 C 128.69 302.45 136.91 307.58 146.19 310.00 C 148.26 310.36 150.63 311.15 152.52 309.80 C 158.30 306.24 162.30 300.61 166.45 295.39 C 168.58 293.16 168.17 289.86 168.62 287.05 C 169.32 274.49 170.02 261.73 167.56 249.32 C 159.26 250.30 149.90 249.00 144.17 242.31 C 140.51 247.96 135.64 252.64 130.93 257.39 M 116.69 254.10 C 121.22 255.01 125.85 254.48 130.41 254.21 C 131.90 251.10 135.03 249.34 137.07 246.65 C 130.76 250.33 123.86 252.75 116.69 254.10 M 111.87 316.00 C 122.82 320.63 134.22 324.75 146.21 325.33 C 136.84 317.56 124.10 311.57 111.87 316.00 M 111.43 318.54 C 111.24 320.00 111.05 321.47 110.88 322.94 C 122.37 327.83 133.75 334.03 146.43 334.98 C 138.70 328.47 129.04 325.04 119.88 321.11 C 117.19 319.87 114.35 319.03 111.43 318.54 Z" />
<path fill="#b0bec9" opacity="1.00" d=" M 251.75 145.65 C 255.39 144.68 259.03 143.56 262.81 143.34 C 258.86 146.27 254.05 147.60 249.27 148.41 C 249.52 146.91 250.35 145.99 251.75 145.65 Z" />
<path fill="#b0bec9" opacity="1.00" d=" M 213.81 178.02 C 231.78 180.41 244.06 163.51 260.95 161.21 C 257.55 163.58 253.72 165.19 250.08 167.13 C 243.68 170.46 238.81 176.17 232.15 179.06 C 227.12 181.47 221.48 182.14 215.98 182.35 C 215.25 180.90 214.53 179.46 213.81 178.02 Z" />
<path fill="#b0bec9" opacity="1.00" d=" M 173.66 190.45 C 183.55 192.87 192.40 186.82 201.56 184.39 C 199.85 186.42 197.76 188.09 195.40 189.30 C 188.06 193.20 181.01 197.64 173.69 201.58 C 173.72 197.87 173.73 194.16 173.66 190.45 Z" />
<path fill="#b0bec9" opacity="1.00" d=" M 121.40 263.11 C 125.57 265.50 130.88 267.16 133.35 271.56 C 134.72 277.55 135.87 283.63 138.99 289.02 C 137.81 293.46 137.93 298.73 134.37 302.09 C 134.87 298.71 136.44 295.56 136.75 292.16 C 135.44 288.32 132.92 285.00 131.92 281.05 C 131.02 278.25 131.35 274.99 129.44 272.58 C 126.93 269.27 123.70 266.58 121.40 263.11 Z" />
<path fill="#b0bec9" opacity="1.00" d=" M 63.95 409.18 C 69.63 408.86 75.32 409.00 81.00 409.02 C 82.85 408.79 84.87 410.19 84.91 412.15 C 85.17 416.76 84.92 421.38 85.00 426.00 C 83.25 425.99 81.49 425.99 79.73 426.00 C 79.74 422.00 79.73 417.99 79.73 413.99 C 75.71 414.00 71.69 414.00 67.67 414.00 C 67.76 417.88 67.41 421.79 67.85 425.66 C 73.19 432.47 79.37 438.62 84.49 445.60 C 85.63 450.91 84.76 456.56 84.98 461.99 C 85.26 464.24 83.25 466.28 81.00 465.98 C 75.32 466.00 69.63 466.14 63.95 465.82 C 63.32 464.55 62.27 463.37 62.25 461.90 C 62.09 457.27 62.26 452.63 62.20 448.00 C 64.02 448.00 65.84 447.99 67.67 447.99 C 67.66 452.33 67.67 456.66 67.66 461.00 C 71.69 461.00 75.71 460.99 79.73 461.01 C 79.62 456.51 79.99 451.99 79.57 447.52 C 74.44 440.70 68.37 434.61 63.22 427.80 C 61.80 425.86 62.30 423.33 62.18 421.10 C 62.44 417.09 61.23 412.59 63.95 409.18 Z" />
<path fill="#b0bec9" opacity="1.00" d=" M 93.34 408.99 C 99.87 409.06 106.40 408.90 112.93 409.04 C 115.46 408.91 116.57 411.81 116.45 413.93 C 116.48 421.97 116.48 430.02 116.45 438.07 C 116.57 440.18 115.46 443.08 112.93 442.96 C 108.22 443.10 103.51 442.95 98.80 443.00 C 98.80 450.66 98.80 458.33 98.80 466.00 C 96.98 465.99 95.15 466.00 93.33 466.01 C 93.34 447.00 93.33 428.00 93.34 408.99 M 98.80 414.00 C 98.80 422.00 98.80 430.00 98.80 438.00 C 102.87 438.00 106.95 438.00 111.03 438.00 C 111.05 430.00 111.05 422.00 111.03 414.00 C 106.95 414.00 102.87 414.00 98.80 414.00 Z" />
<path fill="#b0bec9" opacity="1.00" d=" M 124.34 408.99 C 130.71 409.01 137.09 409.00 143.46 409.00 C 143.46 410.66 143.46 412.33 143.46 414.00 C 138.91 414.00 134.35 414.00 129.80 414.00 C 129.80 421.00 129.80 428.00 129.80 435.00 C 133.86 434.99 137.93 435.00 142.00 435.00 C 142.00 436.66 142.00 438.33 142.00 440.00 C 137.93 439.99 133.86 440.00 129.80 440.00 C 129.80 447.00 129.80 454.00 129.80 461.00 C 134.42 460.99 139.04 461.01 143.66 460.98 C 143.66 462.66 143.66 464.33 143.66 466.02 C 137.22 465.99 130.78 466.00 124.34 466.01 C 124.33 447.00 124.33 428.00 124.34 408.99 Z" />
<path fill="#b0bec9" opacity="1.00" d=" M 150.35 414.06 C 150.26 411.89 151.45 408.90 154.03 409.05 C 159.34 408.94 164.66 408.96 169.97 409.03 C 172.09 408.89 173.81 411.06 173.75 413.07 C 173.91 417.38 173.75 421.69 173.80 426.00 C 171.97 425.99 170.15 426.00 168.33 426.01 C 168.34 422.00 168.33 418.00 168.33 414.00 C 164.15 414.00 159.98 414.00 155.80 414.00 C 155.80 429.67 155.80 445.33 155.80 461.00 C 159.98 461.00 164.15 461.00 168.33 461.00 C 168.33 456.66 168.34 452.33 168.33 447.99 C 170.15 447.99 171.98 448.00 173.80 448.00 C 173.74 452.64 173.91 457.28 173.75 461.92 C 173.81 463.93 172.09 466.10 169.97 465.97 C 164.66 466.03 159.34 466.06 154.03 465.95 C 151.45 466.09 150.26 463.11 150.35 460.94 C 150.32 445.31 150.32 429.68 150.35 414.06 Z" />
<path fill="#b0bec9" opacity="1.00" d=" M 179.20 408.99 C 186.96 409.01 194.71 409.00 202.46 409.00 C 202.46 410.66 202.46 412.33 202.47 414.00 C 199.53 414.00 196.59 414.00 193.66 414.00 C 193.67 431.33 193.66 448.67 193.67 466.01 C 191.84 466.00 190.02 465.99 188.20 466.00 C 188.20 448.66 188.20 431.33 188.20 414.00 C 185.20 414.00 182.20 414.00 179.21 414.01 C 179.20 412.33 179.20 410.66 179.20 408.99 Z" />
<path fill="#b0bec9" opacity="1.00" d=" M 208.33 408.99 C 215.61 409.07 222.90 408.86 230.17 409.12 C 231.10 410.59 232.24 412.10 231.97 413.95 C 231.80 421.50 232.28 429.08 231.73 436.61 C 230.12 439.71 226.20 438.90 223.34 439.08 C 226.62 448.02 229.90 456.97 233.09 465.95 C 231.22 465.98 229.34 466.00 227.47 466.03 C 223.98 455.38 220.09 444.86 216.72 434.17 C 219.98 433.96 223.26 433.98 226.53 434.00 C 226.53 427.33 226.54 420.66 226.53 413.99 C 222.29 414.00 218.04 414.00 213.80 414.00 C 213.80 431.33 213.79 448.66 213.80 466.00 C 211.98 465.99 210.15 466.00 208.33 466.01 C 208.34 447.00 208.33 427.99 208.33 408.99 Z" />
<path fill="#b0bec9" opacity="1.00" d=" M 240.33 408.99 C 242.15 408.99 243.98 409.00 245.80 409.00 C 245.79 426.34 245.80 443.67 245.80 461.00 C 250.21 461.00 254.62 461.00 259.03 461.00 C 259.04 443.68 259.06 426.35 259.02 409.02 C 260.83 409.01 262.65 409.00 264.47 409.00 C 264.46 426.36 264.47 443.72 264.47 461.08 C 264.71 463.26 263.46 466.03 260.94 465.96 C 255.30 466.04 249.66 466.05 244.03 465.95 C 241.45 466.09 240.26 463.11 240.35 460.94 C 240.31 443.63 240.35 426.31 240.33 408.99 Z" />
<path fill="#b0bec9" opacity="1.00" d=" M 273.33 409.01 C 275.03 409.00 276.73 408.99 278.44 408.98 C 281.55 421.21 284.61 433.45 287.81 445.66 C 290.92 433.44 293.98 421.21 297.15 409.00 C 298.76 409.00 300.38 409.00 302.00 409.00 C 302.00 428.00 302.00 447.00 302.00 466.00 C 300.34 465.99 298.68 465.98 297.02 465.97 C 296.99 453.59 297.18 441.20 296.92 428.83 C 293.79 439.52 291.23 450.39 287.98 461.05 C 287.17 459.40 286.48 457.71 286.02 455.95 C 283.53 446.66 281.05 437.36 278.50 428.08 C 278.42 440.72 278.49 453.36 278.46 466.00 C 276.75 465.99 275.04 466.00 273.33 466.00 C 273.34 447.00 273.33 428.01 273.33 409.01 Z" />
<path fill="#b0bec9" opacity="1.00" d=" M 11.34 499.00 C 12.73 498.99 14.13 498.99 15.53 498.99 C 20.40 512.71 25.68 526.29 30.37 540.07 C 30.29 526.38 30.36 512.69 30.33 499.00 C 32.04 498.99 33.75 498.99 35.46 499.00 C 35.47 518.00 35.45 536.99 35.48 555.99 C 34.17 556.03 32.87 556.02 31.57 555.97 C 26.57 542.12 21.37 528.34 16.47 514.46 C 16.46 528.30 16.47 542.15 16.46 556.00 C 14.75 555.99 13.04 555.99 11.33 556.00 C 11.34 537.00 11.33 518.00 11.34 499.00 Z" />
<path fill="#b0bec9" opacity="1.00" d=" M 46.42 499.35 C 52.53 498.55 58.80 499.16 64.97 499.02 C 67.60 498.73 69.25 501.62 68.95 503.96 C 68.97 519.65 68.97 535.35 68.95 551.04 C 69.25 553.38 67.60 556.26 64.97 555.98 C 59.32 556.02 53.67 556.06 48.03 555.95 C 45.45 556.09 44.26 553.11 44.35 550.94 C 44.30 535.62 44.36 520.29 44.32 504.96 C 44.24 502.91 44.64 500.63 46.42 499.35 M 49.80 504.00 C 49.80 519.66 49.80 535.33 49.80 551.00 C 54.38 551.00 58.95 550.99 63.53 551.01 C 63.54 535.34 63.54 519.66 63.53 503.99 C 58.95 504.01 54.38 504.00 49.80 504.00 Z" />
<path fill="#b0bec9" opacity="1.00" d=" M 74.20 498.99 C 81.96 499.01 89.71 499.00 97.46 499.00 C 97.46 500.66 97.46 502.33 97.47 504.00 C 94.53 504.00 91.60 504.00 88.66 504.00 C 88.67 521.33 88.66 538.67 88.67 556.01 C 86.84 556.00 85.02 555.99 83.20 556.00 C 83.20 538.66 83.20 521.33 83.20 504.00 C 80.20 504.00 77.20 504.00 74.21 504.01 C 74.20 502.33 74.20 500.66 74.20 498.99 Z" />
<path fill="#b0bec9" opacity="1.00" d=" M 126.45 498.98 C 128.22 498.99 129.99 498.99 131.77 499.01 C 135.24 517.99 138.50 537.01 141.95 556.00 C 140.14 556.00 138.34 556.00 136.54 556.00 C 135.91 552.00 135.21 548.01 134.57 544.02 C 130.83 543.99 127.09 543.98 123.35 544.03 C 122.74 548.02 122.00 552.00 121.40 556.00 C 119.64 556.00 117.88 556.00 116.12 556.00 C 119.64 537.01 122.99 517.99 126.45 498.98 M 129.01 508.84 C 127.37 518.90 125.75 528.96 124.00 539.00 C 127.33 538.99 130.66 538.99 134.00 539.01 C 132.22 528.97 130.69 518.89 129.01 508.84 Z" />
<path fill="#b0bec9" opacity="1.00" d=" M 146.16 499.01 C 147.96 499.00 149.77 498.99 151.57 498.99 C 153.88 514.30 156.36 529.57 158.59 544.89 C 161.18 529.62 163.44 514.30 165.77 498.99 C 167.51 498.99 169.26 499.01 171.00 499.04 C 167.69 518.03 164.39 537.01 161.14 556.01 C 159.45 555.99 157.77 555.99 156.08 555.99 C 152.72 537.01 149.56 517.99 146.16 499.01 Z" />
<path fill="#b0bec9" opacity="1.00" d=" M 185.45 498.98 C 187.22 498.99 188.99 498.99 190.77 499.01 C 194.24 517.99 197.50 537.01 200.95 556.00 C 199.14 555.99 197.34 556.00 195.54 556.01 C 194.91 552.00 194.21 548.01 193.57 544.02 C 189.83 543.99 186.09 543.98 182.35 544.03 C 181.74 548.02 181.00 552.00 180.40 556.00 C 178.63 556.00 176.88 556.00 175.12 556.00 C 178.64 537.01 181.99 517.99 185.45 498.98 M 188.01 508.84 C 186.37 518.90 184.75 528.96 183.00 539.01 C 186.33 538.99 189.66 538.99 193.00 539.01 C 191.22 528.97 189.69 518.89 188.01 508.84 Z" />
<path fill="#b0bec9" opacity="1.00" d=" M 207.73 499.00 C 209.49 498.99 211.24 498.99 213.00 499.00 C 213.00 518.00 213.00 537.00 213.00 556.00 C 211.24 555.99 209.49 555.99 207.73 556.00 C 207.74 537.00 207.74 518.00 207.73 499.00 Z" />
<path fill="#b0bec9" opacity="1.00" d=" M 222.33 498.99 C 224.15 498.99 225.98 498.99 227.80 499.00 C 227.79 516.34 227.80 533.67 227.80 551.00 C 232.20 550.99 236.60 551.00 241.00 551.00 C 240.99 552.66 241.00 554.33 241.00 556.00 C 234.78 556.00 228.56 555.99 222.34 556.01 C 222.33 537.00 222.34 518.00 222.33 498.99 Z" />
<path fill="#b0bec9" opacity="1.00" d=" M 255.45 498.98 C 257.22 498.99 258.99 498.99 260.77 499.01 C 264.24 517.99 267.50 537.01 270.95 556.00 C 269.14 556.00 267.34 556.00 265.54 556.00 C 264.91 552.00 264.21 548.01 263.57 544.02 C 259.83 543.99 256.09 543.98 252.35 544.03 C 251.73 548.02 251.00 552.00 250.40 556.00 C 248.63 556.00 246.87 556.00 245.12 556.00 C 248.64 537.01 251.99 517.99 255.45 498.98 M 258.01 508.84 C 256.37 518.90 254.75 528.96 253.00 539.01 C 256.33 538.99 259.66 538.99 263.00 539.01 C 261.22 528.97 259.69 518.89 258.01 508.84 Z" />
<path fill="#b0bec9" opacity="1.00" d=" M 277.34 498.99 C 283.88 499.06 290.44 498.90 296.98 499.04 C 299.61 498.94 300.86 501.80 300.66 504.06 C 300.62 510.25 300.81 516.46 300.57 522.65 C 299.70 525.21 296.61 525.51 294.47 526.51 C 296.51 527.42 298.91 527.85 300.53 529.50 C 301.16 536.63 300.64 543.86 300.79 551.03 C 301.05 553.30 299.55 556.21 296.96 555.97 C 290.42 556.08 283.88 555.95 277.34 556.01 C 277.33 537.00 277.33 518.00 277.34 498.99 M 282.80 504.00 C 282.80 510.67 282.80 517.34 282.80 524.01 C 285.13 523.98 287.48 524.12 289.81 523.90 C 291.77 523.08 293.44 521.73 295.24 520.62 C 295.16 515.08 295.21 509.54 295.20 504.00 C 291.07 504.00 286.93 504.00 282.80 504.00 M 282.80 528.99 C 282.80 536.33 282.80 543.66 282.80 551.00 C 286.98 551.00 291.15 550.99 295.33 551.00 C 295.34 544.75 295.31 538.50 295.36 532.25 C 294.21 531.50 293.08 530.74 291.90 530.05 C 289.23 528.21 285.81 529.24 282.80 528.99 Z" />
<path fill="#b0bec9" opacity="1.00" d=" M 309.33 498.99 C 311.15 498.99 312.97 498.99 314.80 499.00 C 314.79 516.34 314.80 533.67 314.80 551.00 C 319.20 550.99 323.60 551.00 328.00 551.00 C 327.99 552.66 327.99 554.33 328.00 556.00 C 321.78 556.00 315.56 555.99 309.34 556.01 C 309.33 537.00 309.34 518.00 309.33 498.99 Z" />
<path fill="#b0bec9" opacity="1.00" d=" M 334.34 498.99 C 340.71 499.01 347.09 499.00 353.46 499.00 C 353.46 500.66 353.46 502.33 353.46 504.00 C 348.91 504.00 344.35 504.00 339.80 504.00 C 339.80 511.00 339.80 518.00 339.80 525.00 C 343.86 524.99 347.93 525.00 352.00 525.00 C 351.99 526.66 351.99 528.33 352.00 530.00 C 347.93 529.99 343.86 530.00 339.80 530.00 C 339.80 537.00 339.80 544.00 339.80 551.00 C 344.42 550.99 349.04 551.01 353.66 550.98 C 353.66 552.65 353.66 554.33 353.66 556.02 C 347.22 555.98 340.78 556.00 334.34 556.01 C 334.33 537.00 334.33 518.00 334.34 498.99 Z" />
</g>
</svg>
