<svg xmlns="http://www.w3.org/2000/svg" width="256" height="256" xmlns:v="https://vecta.io/nano"><path d="M41.797 246.227c-6.176-.398-12.2-2.502-17.245-6.025a32.24 32.24 0 0 1-4.595-3.861c-3.824-3.817-6.626-8.366-8.278-13.428-.855-2.623-1.361-5.164-1.6-8.055-.103-1.248-.103-172.147 0-173.396.5-6.054 2.349-11.413 5.637-16.348 3.644-5.469 8.98-9.884 14.991-12.408 3.913-1.642 7.706-2.48 11.996-2.654 1.765-.072 168.294-.07 170.009.002 4.387.183 8.25 1.051 12.187 2.739a34.14 34.14 0 0 1 16.9 15.956c2.21 4.417 3.366 8.933 3.574 13.965.073 1.752.073 169.136 0 170.888a33.3 33.3 0 0 1-.36 3.872c-1.811 11.845-9.753 21.868-20.898 26.371-1.738.686-3.527 1.239-5.35 1.652-1.223.27-2.247.432-4.226.667l-172.742.062zm101.531-49.508l15.575-25.996c-.029-.1-31.169-51.886-31.202-51.888-.017-.001-7.054 11.681-15.64 25.958l-15.61 25.96.348.581 15.578 25.909 15.253 25.369c.014.022.041.041.064.041s7.056-11.671 15.632-25.934zm-49.236-48.466l5.603-9.378c0-.03-1.426-2.456-3.169-5.388l-3.169-5.332 17.161-28.869 17.222-28.802c.092.097 34.219 57.522 34.248 57.627.015.052-1.305 2.326-3.147 5.425l-3.122 5.418 11.215 18.63c.045.048 2.313-3.726 8.824-14.683l8.763-14.747-28.393-47.764-28.428-47.764c-.019 0-12.728 21.353-28.243 47.453l-28.394 47.765-.185.312 8.769 14.75 8.806 14.71c.02-.022 2.559-4.235 5.641-9.363z"/><path d="M79.855 142.754c-4.726-7.917-8.494-14.646-8.377-14.953s8.874-15.116 19.458-32.907l27.972-47.028c4.801-8.075 8.854-14.536 9.007-14.361.347.4 53.369 89.606 55.033 92.588l1.22 2.187-8.45 14.231c-4.647 7.828-8.594 14.187-8.77 14.132-.388-.12-10.778-17.185-10.778-17.702 0-.201 1.378-2.715 3.062-5.587l3.062-5.221-16.382-27.571-17.268-29.027-.885-1.456-1.32 2.108c-.726 1.16-8.528 14.22-17.338 29.022l-16.018 26.911 3.039 5.152c1.671 2.835 3.039 5.347 3.039 5.584s-2.412 4.449-5.359 9.36l-5.359 8.928zm32.442 53.869l-15.309-25.875c0-.337 30.045-50.613 30.663-51.309.15-.169 30.453 50.39 30.618 51.083.112.47-30.164 51.515-30.554 51.515-.061 0-6.999-11.437-15.418-25.415z" fill="#fff"/></svg>
