<svg xmlns="http://www.w3.org/2000/svg" width="937.526" height="518.418" xmlns:v="https://vecta.io/nano"><path d="M145.358 488.238l-18.066-30.179 18.064-30.173 18.114-30.156c.041.014 12.646 21.044 33.276 55.517l2.88 4.813-18.068 30.179-18.101 30.179c-.019 0-8.163-13.581-18.1-30.18zm-38.446-62.471l-10.614-17.616c-.041-.088 2.301-4.016 10.328-17.321l10.381-17.207.863-2.019c2.415-5.65 6.285-15.16 6.578-16.166 1.156-3.965.932-8.121-.734-13.617-.614-2.024-2.298-6.597-3.504-9.514-1.935-4.681-3.119-7.98-6.674-18.593l-5.603-16.035c-2.138-5.567-3.076-7.523-4.956-10.333-2.061-3.079-4.042-5.356-9.61-11.048l-4.671-4.799c-2.657-2.762-3.233-3.217-4.483-3.54-1.59-.411-2.347-.437-9.715-.334-6.853.096-11.827-.179-20.192-1.116-3.086-.346-13.93-1.748-18.56-2.4-15.473-2.178-27.013-6.599-35.376-13.55L0 250.254l1.017-1.518c2.24-3.344 4.052-5.567 5.811-7.132l5.332-4.693c5.449-4.752 9.627-7.364 13.856-8.663 1.558-.478 5.526-1.374 8.512-1.921 5.155-.945 9.6-1.531 19.936-2.629 10.455-1.111 14.986-1.705 20.032-2.628 7.04-1.288 11.419-2.597 19.04-5.694 1.878-.763 9.643-4.08 9.711-4.148.027-.027-.156-.336-.407-.686-4.293-5.991-7.349-12.355-8.879-18.493-1.204-4.829-1.506-9.499-.901-13.944 1.18-8.67 2.849-13.486 6.07-17.512.562-.702 2.348-2.545 3.563-3.676 6.121-5.698 13.569-10.128 21.595-12.846 6.045-2.047 11.832-3.015 18.048-3.019 4.89-.004 9.071.548 13.555 1.789.715.198 1.308.349 1.32.336s.618-1.982 1.348-4.375l26.401-84.96 13.825-44.128L201.85.002c.055-.058 1.207 1.114 2.029 2.065 1.609 1.862 2.852 3.525 6.007 8.032 2.414 3.45 4.082 5.691 4.639 6.233 3.702 3.604 8.626 6.029 15.989 7.873 1.797.45 3.726.88 7.343 1.636 4.673.977 6.612 1.436 9.184 2.177 11.006 3.17 22.079 8.329 35.005 16.309 8.276 5.109 11.344 7.395 15.769 11.753 7.119 7.011 13.522 16.052 22.711 32.067l4.159 7.168 8.589 14.936c7.34 13.216 11.89 23.462 14.974 33.725l.307.971c.012.012.54-.117 1.174-.286l3.136-.832c4.864-1.284 10.422-2.846 10.654-2.994.087-.055 2.154-1.884 4.594-4.063l4.436-3.962 7.166.787 7.15.836c-.036.109-10.705 9.586-10.79 9.586a921.16 921.16 0 0 1-5.942-.642l-5.85-.642-3.341.94-3.402.994c-.034.031.063.054.224.055.275 0 .35.052 2.225 1.537 3.026 2.397 5.065 4.092 7.024 5.836l.781.695-.916 1.806c-2.088 4.116-3.418 7.344-6.267 15.214l-2.335 6.351c-.021.026-.119-1.198-.216-2.72l-.214-3.132-.037-.365-.648.325c-1.442.722-4.104 2.141-4.257 2.268-.034.029.148.447 1.001 2.297 1.266 2.747 1.583 3.725 1.839 5.677l.314 2.355c.569 4.198 1.026 9.36 1.284 14.528.211 4.206.254 6.3.254 12.288 0 8.896-.119 12.462-1.02 30.592l-.478 9.92-.674 12.96c-.785 10.834-2.144 18.842-4.455 26.259-.447 1.433-1.199 3.612-1.303 3.772-.005.008-.339-.172-.741-.402-2.362-1.347-5.751-2.792-8.486-3.617-.848-.256-.903-.282-.855-.407a261.23 261.23 0 0 1 .547-1.35c2.278-5.594 4.533-12.269 6.291-18.624.942-3.405 1.171-4.414 1.477-6.528 1.704-11.746-1.407-25.056-9.083-38.871-.496-.893-.887-1.638-.87-1.655s1.79.219 3.939.526l3.992.526c.089-.034.15-.377.362-2.061.313-2.477.448-4.821.448-7.776 0-5.124-.413-9.76-1.725-19.34l-1.281-10.001c-.073-.667-.146-1.226-.163-1.243s-.297.019-.622.078c-2.924.535-5.397.928-10.736 1.708-6.263.915-7.957 1.263-10.889 2.238-4.26 1.417-8.09 3.297-15.971 7.84l-1.997 1.151.461.042c.987.091 3.426.184 6.541.251 3.461.074 8.001.026 15.858-.17l4.143-.08c.086.014-.123.171-.658.494-7.33 4.432-14.354 11.25-19.955 19.366-2.897 4.198-6.745 8.626-10.238 11.781-7.147 6.455-14.298 9.815-21.982 10.329-2.043.137-2.818.081-10.24-.73-4.626-.505-7.178-.745-10.08-.946-1.598-.111-7.893-.111-9.152-.001-3.076.269-5.167.609-7.648 1.241-1.695.432-4.688 1.461-4.61 1.586.017.027.298.208.625.401 5.217 3.087 7.589 4.541 9.806 6.013 1.454.965 3.357 2.303 3.361 2.363.003.049-3.007 1.52-4.369 2.134a104.96 104.96 0 0 1-17.741 6.182c-8.081 2.047-15.955 3.164-24.828 3.519-.913.037-1.672.079-1.687.094s.105.396.267.847a41.03 41.03 0 0 1 1.07 3.475c.327 1.218.359 1.347 1.177 4.697 1.122 4.598 1.846 6.829 2.973 9.161.949 1.964 1.868 3.344 3.173 4.766.275.299.553.582.618.628.233.164 13.515 15.021 23.011 25.74l.595.672v1.264c0 .695-.011 1.264-.026 1.264s-1.691-1.879-3.727-4.176l-22.067-24.832-2.59-2.863c-.021 0-.211.324-.422.718-1.177 2.199-2.42 4.085-5.282 8.017-2.596 3.566-3.529 4.925-4.583 6.675-.64 1.063-.885 1.633-1.449 3.373-.89 2.747-1.555 6.054-1.899 9.456-.339 3.35-.387 5.032-.388 13.744l-.065 9.59c-.152 4.305.269 8.444 1.293 12.714.144.598.314 1.192.378 1.32s8.562 14.225 18.884 31.328l18.769 31.224c.001.07-4.76 8.019-10.579 17.664l-10.59 17.546c-.014.016-13.084-21.823-13.126-21.933-.023-.061 1.47-2.596 3.933-6.679l3.971-6.582-.159-.271-20.382-33.789-20.223-33.517-.153.245c-.128.205-40.532 67.176-40.597 67.291-.012.021 1.763 2.997 3.944 6.612l3.966 6.626a5306.61 5306.61 0 0 1-13.141 21.996c-.006.005-4.763-7.866-10.571-17.492zm39.389-100.693l17.114-28.331c.055-.056 3.257 5.207 13.033 21.421l12.997 21.499c.02.002.086-.724.145-1.613.78-11.61.498-22.253-.86-32.496-.335-2.529-1.025-6.812-1.111-6.898-.02-.02-.533.011-1.14.07-2.176.209-3.338.253-5.796.217-2.228-.033-3.331-.101-4.839-.298-5.819-.761-10.711-2.705-14.54-5.775-.857-.687-2.231-1.992-2.776-2.636-.194-.229-.369-.418-.39-.42s-.206.248-.41.556c-.899 1.355-2.489 3.505-3.609 4.88-.377.463-.694.95-1.02 1.565-4.475 8.455-12.817 13.961-21.643 14.283-3.781.138-7.632-.707-11.024-2.419-.697-.352-1.009-.542-1.01-.617s-.308-.259-1.01-.604c-.555-.273-1.666-.858-2.469-1.3s-1.469-.795-1.479-.784.283.956.65 2.1c1.573 4.895 2.477 7.939 3.155 10.624.561 2.22.732 3.018 1.346 6.272.567 3.008 1.586 6.029 3.314 9.824.353.774 1.281 2.733 2.063 4.352 2.612 5.408 3.734 8.067 4.131 9.792.273 1.186.295 3.405.05 4.896-.024.145-.015.202.025.16.034-.035 7.73-12.779 17.103-28.32zm-10.621-19.587c1.256-.089 1.621-.203 3.36-1.053 1.615-.79 3.127-1.78 4.43-2.901.748-.643 3.004-3.057 3.569-3.819.559-.753 1.056-1.474 1.056-1.533 0-.02-.743.336-1.65.79-5.991 2.997-12.598 5.402-21.292 7.75l-1.234.347c-.071.071 3.096.395 4.72.482a97.53 97.53 0 0 0 7.04-.064zm41.376-13.465c1.704-.24 2.82-.501 4.568-1.071 2.451-.799 3.863-1.465 5.736-2.707 4.168-2.765 7.298-6.776 9.063-11.615.134-.368.234-.679.223-.691s-.378.121-.813.294c-3.817 1.521-7.776 2.489-12.856 3.141-2.694.346-5.07.561-8.928.807-2.515.16-2.976.203-2.816.26.371.132 3.763.647 5.824.884l7.36.744c2.254.22 5.042.553 5.28.63.142.046.06.1-.704.468-3.068 1.477-6.439 2.426-10.4 2.926-2.849.36-4.504.444-10.176.515l-9.183.187-.351.04.639.478c3.662 2.739 8.124 4.409 12.895 4.827.692.061 3.966-.022 4.64-.116zm-37.984-8.732c7.494-4.932 10.93-7.275 14.833-10.11 8.582-6.234 15.187-12.271 20.165-18.432.322-.399.586-.687.586-.64s-.119.856-.264 1.799-.247 1.732-.225 1.754 1.761-.25 3.864-.604l3.847-.623c.012.012-1.185 1.571-2.66 3.466l-6.599 8.586c-1.336 1.778-1.679 2.273-1.606 2.318.229.143 2.36.782 3.804 1.14 6.551 1.626 13.092 1.526 18.731-.287l.683-.22.064-.302c.385-1.809.455-4.444.169-6.356-.438-2.929-1.586-5.631-3.3-7.77-.649-.81-2.076-2.197-2.747-2.671-1.469-1.037-3.29-1.782-6.528-2.673l-1.171-.329-.435-.127.041-.3c.089-.658.49-2.529.736-3.436.397-1.462 1.088-3.474 2.32-6.752 1.03-2.741 1.838-5.024 1.838-5.193 0-.093-.694.548-3.392 3.133l-2.272 2.177-.045-.522c-.04-.474-.246-8.095-.244-9.05 0-.22-.021-.399-.047-.398-.066.003-1.303 1.537-2.185 2.709-.875 1.163-2.25 3.226-2.885 4.329-.643 1.116-1.53 2.932-1.97 4.032-.204.51-.39.942-.412.96s-.451-.443-.952-1.024l-1.364-1.58-.452-.524-1.061 1.1c-1.765 1.831-3.155 3.317-6.236 6.669-5.311 5.779-7.085 7.647-9.996 10.528-3.875 3.835-6.578 6.196-10.059 8.786-2.479 1.845-3.639 2.506-9.549 5.441-4.009 1.991-5.442 2.788-7.456 4.149-2.293 1.548-4.124 3.232-5.576 5.127-.561.732-.645.683.854.497 6.272-.777 12.22-3.225 19.282-7.937 2.258-1.506 3.829-2.637 7.232-5.207 7.07-5.338 8.483-6.369 11.132-8.118.895-.591 1.651-1.075 1.679-1.075.139 0-2.222 3.144-3.628 4.832-2.264 2.718-3.863 4.442-9.344 10.08l-6.012 6.304c-.926 1.017-2.918 3.32-3.002 3.47-.069.123-.254.237 1.816-1.125zm-19.584-8.932c0-.046-3.012-2.818-4.352-4.005-1.78-1.577-3.834-3.34-7.68-6.591-7.319-6.187-10.21-8.759-13.559-12.063-3.49-3.444-6.247-6.571-8.632-9.793l-.995-1.336-.143-.184-3.263 1.551c-8.333 3.96-12.072 5.965-15.935 8.546-1.257.84-2.613 1.823-2.572 1.865s1.482-.098 2.438-.239c2.701-.397 5.472-1.227 9.518-2.848l1.515-.607 1.732.706c4.098 1.672 5.882 2.541 7.712 3.759.953.634 1.76 1.301 2.923 2.418 8.309 7.976 18.431 14.134 30.622 18.631.586.216.672.241.672.191zm3.78-14.516c-1.193-1.629-3.215-3.955-5.156-5.929-2.872-2.92-5.261-5.044-11.424-10.152-4.56-3.779-8.64-7.305-8.64-7.466 0-.117 2.332-.93 3.712-1.294 2.781-.733 5.224-1.022 8.672-1.026 2.784-.003 4.883.151 7.774.57l1.068.139a661.74 661.74 0 0 0 1.429-6.023c0-.027 1.732-.091 5.344-.197 6.311-.187 9.081-.423 12.427-1.062l1.035-.198 1.013-.868 2.704-2.378c3.648-3.257 4.839-4.275 6.357-5.434.484-.37.88-.704.88-.744s-.29-.892-.645-1.894c-.854-2.415-2.113-6.157-2.081-6.189s1.782.682 3.212 1.314c1.968.871 3.586 1.644 6.956 3.322l3.284 1.619c.019 0 .308-.569.645-1.264 2.037-4.215 2.311-4.676 3.447-5.82.543-.547.797-.754 1.076-.877.559-.247 1.78-.629 3.389-1.06l2.208-.618c4.491-1.359 8.627-4.526 13.026-9.973.339-.42.608-.773.597-.784-.032-.032-2.194.464-3.561.817-2.476.64-4.623 1.263-9.024 2.619-7.371 2.271-10.886 3.202-14.592 3.866-1.085.194-2.64.428-2.667.401-.01-.01.759-.745 1.709-1.634l1.728-1.615-.985-1.069c-1.145-1.242-2.029-2.108-2.564-2.512l-.379-.286-1.413.005c-1.319.004-1.455.016-2.053.175-.759.202-1.651.631-2.156 1.037-.448.36-.469.456-.416 1.882.042 1.151.152 1.729.742 3.91.352 1.302.674 2.69.632 2.72s-3.599 1.35-4.399 1.631c-2.35.829-4.674 1.427-6.61 1.701-.41.058-1.368.115-2.224.133l-1.504.03.923-.612a104.02 104.02 0 0 1 2.848-1.771c2.281-1.374 4.027-2.526 4.997-3.298.69-.549 2.4-2.169 2.4-2.273 0-.089-2.587-.058-3.776.045-1.989.172-2.997.327-6.896 1.06-3.58.672-5.737 1.02-5.616.904.096-.092 2.07-1.268 4.16-2.478l2.979-1.736 1.123-.661.595-3.345.66-3.655.065-.309.319.565 2.953 5.333c.538 1.01.469.962.879.606a13.05 13.05 0 0 1 2.268-1.471c1.157-.554 2.661-.988 4.192-1.209 1.102-.159 1.891-.223 4.448-.359 4.153-.222 5.615-.435 7.507-1.094.307-.107 1.537-.679 2.733-1.272l4.48-2.148 2.333-1.096c.016-.014-1.652-1.707-3.707-3.762l-3.736-3.736.237-1.589c.459-3.08.589-4.665.533-6.485-.072-2.334-.443-3.972-1.262-5.565a9.14 9.14 0 0 0-2.478-2.969l-.4-.304-.592.262c-1.799.797-3.546 2.082-5.36 3.944-1.092 1.12-2.018 2.22-4.177 4.958l-1.782 2.25-.198.24h1.302c1.488-.001 4.584-.081 8.875-.228l2.985-.081c.011.012-.237.756-.55 1.653l-2.356 6.671c-.044.05-2.475-1.827-4.89-3.775-.804-.648-1.47-1.17-1.481-1.158s-.208 1.097-.439 2.413l-.45 2.422c-.017.017-1.216-.926-2.665-2.095s-2.658-2.1-2.686-2.07-.288 1.035-.575 2.231c-1.178 4.897-1.719 6.956-2.356 8.96l-.366 1.152-.047-.32c-.026-.176-.066-1.908-.089-3.849l-.042-3.529-.671.873c-2.732 3.554-6.291 6.829-10.507 9.669l-.988.666.22.1c.822.372 3.391 1.604 4.188 2.009.781.396.922.488.757.491-.315.005-1.07-.109-2.741-.414-2.72-.497-3.744-.576-4.942-.382-1.164.189-2.207.703-3.7 1.824-1.074.806-2.049 1.712-3.964 3.681-1.901 1.955-2.879 2.861-3.974 3.684-1.346 1.011-1.909 1.289-5.179 2.556-1.844.715-4.578 1.834-8.128 3.327-10.23 4.304-14.214 5.827-19.072 7.295-6.362 1.922-9.954 2.515-24.64 4.065l-6.88.739c-10.983 1.245-18.013 2.627-24.704 4.855a59.47 59.47 0 0 0-12.56 5.785c-1.571.949-2.104 1.341-2.763 2.031-1.079 1.129-1.146 2.024-.197 2.643.549.358.554.359 1.472.192 1.252-.228 3.726-.857 5.344-1.359 1.918-.595 3.323-1.093 8.305-2.944 2.593-.963 4.82-1.726 6.383-2.188l2.24-.668c3.732-1.125 7.227-1.934 11.738-2.719 2.558-.445 5.344-.85 11.221-1.631 10.578-1.406 13.341-1.873 19.365-3.27 13.533-3.139 20.682-4.631 27.725-5.784 6.032-.988 7.575-1.421 15.185-4.265 4.49-1.678 6.582-2.374 8.911-2.969 2.528-.645 3.718-.811 5.344-.746 3.392.136 6.665 1.359 10.51 3.927.958.64 2.607 1.826 2.607 1.874 0 .018-.41.216-.911.441-3.674 1.651-7.458 2.839-11.247 3.528l-1.136.219c-.009.008.524.122 1.184.254 1.863.371 4.142.882 5.353 1.199l.249.065-.345.161c-1.178.55-3.122 1.222-4.697 1.624-2.688.686-5.159 1.052-10.56 1.566-6.034.574-8.515.936-11.228 1.637-2.036.527-3.235.969-6.052 2.235-6.721 3.019-13.83 5.696-20.736 7.807l-2.266.697-.346.11 1.242.695c3.164 1.769 6.14 3.561 12.474 7.511 8.444 5.265 12.081 7.393 16.832 9.85 1.76.91 5.856 2.832 6.038 2.833.029 0-.036-.122-.146-.272zm22.409-1.711c.169-.064.631-.311 1.027-.548 3.247-1.946 6.2-4.313 9.897-7.932 1.009-.988 6.129-6.258 7.825-8.054.304-.322 1.231-1.233 2.059-2.024l1.505-1.437-.163-.195c-.401-.48-2.707-3.06-4.399-4.92l-1.853-2.038-.284.566-1.426 2.902c-1.269 2.598-2.63 5.264-3.284 6.432-.443.793-.549.949-.549.811 0-.043-.086-.675-.191-1.405-.373-2.587-.556-4.3-1.12-10.429l-.452-4.488c-.07-.068-2.577 2.601-4.049 4.31-2.974 3.456-5.617 7.023-10.572 14.272l-2.731 3.978c-.54.78-.981 1.442-.981 1.472s1.073.643 2.384 1.363c3.843 2.11 7.146 4.006 7.631 4.382.153.119.225.128-1.28-.159-3.639-.693-6.881-1.711-14.464-4.538-3.519-1.312-7.479-2.695-7.698-2.688-.085.003 1.982 1.336 3.218 2.075 2.275 1.362 4.807 2.712 7.392 3.942 2.789 1.327 6.435 2.919 7.84 3.423l1.646.601c1.408.522 2.304.617 3.071.326zm48.184-13.462c4.251-1.934 9.047-4.425 14.554-7.561l9.408-5.453c7.981-4.66 11.732-6.736 16.256-8.996 4.658-2.327 6.288-3.005 8.65-3.595 2.386-.596 4.49-.872 9.558-1.253 4.394-.33 6.349-.555 8.347-.959 1.335-.271 2.021-.455 3.819-1.029 2.629-.839 4.248-1.493 6.586-2.659 4.189-2.09 8.054-4.692 13.248-8.92 3.493-2.843 5.55-4.114 11.936-7.377 5.185-2.649 5.442-2.796 9.12-5.201l3.264-2.084c3.732-2.25 6.846-3.282 16.288-5.401 3.794-.851 6.357-1.476 8.16-1.988 1.366-.388 3.899-1.224 4.405-1.454l.319-.145-1.546-1.48-4.767-4.433-1.17-1.049.573-.24c3.942-1.65 7.503-4.709 9.907-8.509 1.988-3.143 3.294-6.865 3.671-10.464.116-1.108.024-.992.784-.992.36 0 1.662.03 2.893.067 2.25.066 4.385.014 5.421-.133.436-.062.479-.084.99-.514.857-.722 3.557-3.336 3.499-3.389-.084-.077-4.371-1.686-5.625-2.111a55.16 55.16 0 0 0-2.073-.653l-.925-.264-1.283.112c-3.845.337-7.417 1.107-10.346 2.231l-.679.261-.395.59c-1.125 1.679-1.769 3.302-2.918 7.355-.727 2.565-1.079 3.662-1.507 4.703-.813 1.977-1.649 3.266-2.887 4.45-.856.818-1.491 1.223-2.87 1.83-6.666 2.933-12.623 4.838-25.696 8.218-8.4 2.172-13.136 3.524-17.184 4.905-4.726 1.613-5.584 1.831-12.288 3.132-5.384 1.044-8.091 1.878-10.766 3.317-2.72 1.463-4.693 2.89-9.522 6.885l-2.432 1.993c-3.757 3.018-7.135 5.051-9.824 5.911-.997.319-2.726.745-4.022.99-2.125.402-3.956.633-8.17 1.027-9.619.9-12.749 1.547-24.43 5.049-5.788 1.735-7.93 2.342-10.54 2.987-.56.138-1.03.263-1.044.277s.012.453.058.976c.139 1.585.102 7.451-.07 10.999-.18 3.713-.244 8.338-.141 10.208.209 3.803.707 6.666 1.679 9.653.24.738.267.788.401.754.079-.02.675-.277 1.323-.572zm1.7-7.867l-.106-6.256-.108-4.986-.039-.346.218.039.922.166c4.208.755 8.877.385 14.137-1.121 2.454-.702 4.565-1.439 9.481-3.306l6.323-2.315c1.217-.407 2.996-.939 3.063-.916.094.031-1.043 1.257-1.75 1.887-1.915 1.706-3.859 2.974-7.926 5.17-3.186 1.72-6.066 3.35-11.2 6.337l-11.751 6.645-1.193.618c-.019 0-.05-.727-.071-1.616zm52.615-22.358a351.98 351.98 0 0 1-2.096-4.864c0-.014.814-.026 1.808-.027 3.4-.002 6.295-.152 8.112-.421 3.233-.478 7.149-1.715 11.232-3.546 3.085-1.383 6.108-3.012 12.32-6.636l4.032-2.337c7.548-4.305 12.827-6.508 18.304-7.641.581-.12 1.099-.218 1.151-.218.185 0-1.507 1.16-3.007 2.061-1.299.781-2.642 1.498-6.138 3.278-3.43 1.747-4.438 2.298-5.894 3.226-1.953 1.245-3.564 2.412-7.332 5.309-4.689 3.606-6.751 5.037-9.333 6.476-2.065 1.151-5.061 2.452-7.365 3.197-4.008 1.297-8.794 2.032-14.057 2.159-1.006.024-1.717.017-1.738-.017zm-78.558 19.718c1.756-3.771 3.214-7.096 4.478-10.207.643-1.583.72-1.792.659-1.792-.1 0-4.001 2.014-5.923 3.058-1.727.938-6.638 3.709-6.768 3.819-.021.018 2.814 3.099 4.934 5.363l1.68 1.759a155.32 155.32 0 0 0 .94-2zm-4.505-34.465c1.57-.549 4.795-1.553 9.063-2.822l9.409-2.883c.048-.048-3.399-.895-4.641-1.14-3.57-.705-7.054-.879-9.682-.482-.786.119-2.533.697-3.984 1.318-1.381.591-5.67 2.64-5.683 2.716-.006.031 1.027.856 2.294 1.834l2.304 1.779c0 .001.414-.142.921-.32zM278.56 180.05c.893-.175 2.481-.555 4-.957l2.784-.732 35.599-9.578c1.851-.522 2.849-.835 3.168-.994 1.629-.814 3.04-2.217 4.035-4.012.818-1.476 1.393-3.051 2.318-6.35.671-2.392.903-3.166 1.238-4.114.206-.586.235-.716.149-.691l-1.93.582-24.896 7.232c-24.341 6.899-33.76 9.755-46.9 14.221-.363.123-.649.235-.635.249.05.05 6.513 1.989 9.359 2.808 3.667 1.056 8.572 2.361 9.344 2.488.395.065 1.688-.018 2.368-.151zm-23.552-6.68l35.296-10.431 10.656-3.081 21.152-6.185 13.005-3.948c.043-.041-1.425-6.016-2.157-8.781-2.794-10.545-5.434-17.545-8.977-23.805-1.378-2.435-3.789-6.016-4.051-6.016-.19 0-1.524.361-2.137.578-.771.273-1.724.689-3.298 1.439-1.553.74-2.39 1.118-2.416 1.093-.01-.01.038-.433.108-.94.76-5.519.932-11.088.48-15.577-.66-6.558-2.632-12.352-5.772-16.96-1.881-2.761-3.631-4.748-8.17-9.283-4.063-4.06-6.189-6.013-9.99-9.179-10.68-8.896-22.723-16.362-35.904-22.258-2.11-.944-3.01-1.235-4.576-1.483-1.39-.219-2.345-.261-6.035-.261-1.978 0-3.985-.029-4.461-.064-2.327-.173-3.578-.5-5.084-1.329-1.01-.556-1.552-.945-5.444-3.907-4.596-3.496-9.11-6.23-14.624-8.855-4.231-2.015-4.8-2.343-5.796-3.342-.685-.687-.896-.998-1.489-2.186-.846-1.695-1.3-2.984-2.436-6.908-.666-2.302-1.304-4.288-1.416-4.406-.062-.065.187-.831-2.809 8.63l-15.998 50.88-24.096 77.363c-.005.028.163.125.374.215 2.323.99 3.716 1.782 7.968 4.532 2.95 1.907 3.679 2.359 5.013 3.103 2.658 1.482 5.023 2.337 7.371 2.666 1.012.142 2.762.143 3.748.002 1.788-.255 6.928-1.932 16.668-5.436l9.088-3.191c8.89-2.941 15.007-4.297 21.952-4.866 1.626-.133 7.392-.113 9.056.032 3.117.271 5.82.7 8.555 1.358 9.106 2.19 17.097 6.595 22.991 12.677.941.971 2.147 2.323 2.106 2.362-.011.011-1.1-.076-2.42-.193-12.413-1.099-20.042-.938-27.565.582-1.482.299-4.359 1.024-4.296 1.081.011.01.798.574 1.749 1.252 5.266 3.757 7.602 5.903 9.472 8.702.917 1.371 1.648 2.908 2.043 4.288l.198.686c.018.055.076.061.203.019a410.75 410.75 0 0 1 2.163-.665zm103.035-4.726c.063-.484.333-1.569.595-2.385.311-.971.711-1.96 1.692-4.179l1.096-2.541c.319-.796.761-2.091.726-2.126s-2.539.936-5.959 2.319l-4.317 1.743c-.755.304-1.345.56-1.312.571a315.05 315.05 0 0 0 1.693.44l5.653 1.5c.029.028-.072.095-.224.149a1437.28 1437.28 0 0 0-7.189 2.733c-.17.07-.324.02 2.496.798l4.968 1.337c.022-.01.059-.171.083-.356zm4.133-12.921l1.972-.219c.027-.023-.415-2.429-.57-3.102-.236-1.024-.29-1.138-.624-1.306-.468-.236-1.655-.655-2.352-.83-.686-.173-1.764-.372-1.802-.334s.423 2.435.795 4.102l.388 1.744c.017.079.078.145.136.145s.983-.089 2.057-.201zm319.968 253.405c-1.791-.145-3.301-.586-4.588-1.341-1.835-1.076-3.496-2.945-4.591-5.166-.177-.358-7.279-16.707-15.784-36.331l-15.51-35.729c-.026-.027-4.768 17.304-10.538 38.512l-10.491 38.561h-10.065c-5.536 0-10.065-.013-10.065-.029 0-.14 28.881-105.654 29.125-106.404 1.316-4.052 3.815-6.36 7.547-6.97 3.106-.508 5.94.063 8.384 1.689 1.586 1.056 2.838 2.513 3.766 4.385.201.405 7.953 18.152 17.227 39.439l16.894 38.704c.018.001 7.59-17.344 16.827-38.543l17.202-39.405c.729-1.544 1.471-2.604 2.562-3.657a9.7 9.7 0 0 1 5.201-2.64c2.251-.376 4.713-.036 6.461.894 2.235 1.188 3.894 3.377 4.919 6.489.11.334 6.638 24.282 14.507 53.216l14.342 52.72c.034.107-.466.111-10.123.096l-10.158-.016-10.479-38.515-10.51-38.547c-.017-.017-.167.28-.334.659l-15.437 35.443-15.573 35.648c-.798 1.63-1.656 2.854-2.779 3.968-1.433 1.421-2.991 2.268-4.881 2.652-.984.2-2.205.287-3.06.218zm-440.501-1.536c-.024-.024-.043-25.267-.043-56.097v-56.054l41.68.021 42.48.096c2.197.206 2.955.29 4.181.465 10.851 1.547 19.26 6.239 25.071 13.989 5.148 6.865 7.81 15.88 7.812 26.455.002 7.331-1.351 14.005-3.964 19.552-3.529 7.494-9.274 13.223-16.716 16.671l-1.428.638c-.204.082-.362.172-.352.201s6.729 6.827 14.931 15.106l16.855 17.027 1.943 1.973h-14.455-14.455l-6.688-7.343-14.079-15.456-7.39-8.112h-20.945-20.945v-9.055-9.055l24.56-.019 27.216-.373c6.11-1.003 10.538-3.983 13.148-8.849 2.211-4.123 3.154-10.251 2.498-16.234-.613-5.593-2.588-9.843-5.886-12.67-3.368-2.887-7.501-4.335-13.152-4.608-.826-.04-12.486-.064-31.472-.065l-30.16-.001v45.92 45.92h-10.101c-5.556 0-10.121-.019-10.144-.043zm174.613-45.877v-45.92h-21.088-21.088v-10.176-10.176h52.416 52.416v10.176 10.176h-21.12-21.12v45.92 45.92h-10.208-10.208zm74.368-10.176v-56.096h50.144 50.144v10.176 10.176l-40.016.016-40.016.016-.016 35.696-.016 35.696h40.096 40.096v10.208 10.208h-50.208-50.208zm288.064 0v-56.096h10.208 10.208v56.096 56.096h-10.208-10.208zm39.936 45.89V387.22l42.896-.02 43.504-.098c3.707-.473 6.223-1.404 8.416-3.115.661-.516 1.818-1.718 2.291-2.382 1.21-1.697 1.965-3.627 2.325-5.939.167-1.074.169-3.998 0-5.12-.556-3.754-2.017-6.427-4.533-8.293-1.148-.851-2.27-1.417-3.861-1.948-1.693-.565-3.477-.872-5.76-.991-.76-.04-11.062-.064-27.488-.065l-27.36-.066c-7.38-.437-13.476-2.262-18.519-5.544-3.574-2.326-6.875-5.748-9.097-9.43-2.393-3.966-3.789-8.401-4.33-13.76-.159-1.578-.16-5.275-.002-6.848.469-4.657 1.56-8.426 3.498-12.086 1.873-3.536 4.688-6.86 7.857-9.274 4.678-3.564 10.805-5.776 18.033-6.509l1.728-.175c.588-.059 10.488-.082 42.288-.097l41.52-.02v10.176 10.176l-40.88.02-41.68.129c-2.792.381-4.757 1.084-6.528 2.335a13.1 13.1 0 0 0-2.509 2.511c-1.544 2.181-2.3 4.866-2.296 8.159.005 4.855 1.713 8.479 5.059 10.73 1.481.996 3.35 1.701 5.315 2.004.37.057.744.122.832.144s12.702.059 28.032.082l28.896.117c2.838.21 4.76.442 6.743.815 8.048 1.514 14.238 4.965 18.332 10.22 3.284 4.215 5.293 9.751 5.962 16.433.261 2.599.295 7.023.071 9.201-.744 7.245-3.012 12.933-7.166 17.967-.812.985-2.742 2.91-3.675 3.668-3.334 2.708-7.346 4.638-12.132 5.839-2.694.676-4.81.998-8.871 1.353-.649.057-11.564.081-43.888.097l-43.024.022zm-294.512-46.834l.016-8.656 31.312-.016 31.312-.016v8.672 8.672h-31.328-31.328zM383.951 144.95l-4.336-.368c-.017-.017.195-.23.471-.473l2.21-1.969 1.708-1.527 1.732.134 1.732.134 6.686-5.23 6.635-5.247c-.188-.062-16.884-1.287-16.941-1.243l-1.264.987-1.194.933-3.028-.331c-1.864-.204-3.019-.356-3.004-.395s1.636-1.324 3.605-2.864c2.249-1.759 3.633-2.8 3.722-2.8.241 0 28.716 2.17 29.165 2.222l.425.05-11.699 9.152-11.699 9.152-.31.01c-.17.005-2.247-.141-4.615-.327z"/></svg>